<svg width="113" height="114" viewBox="0 0 113 114" fill="none" xmlns="http://www.w3.org/2000/svg">
<g filter="url(#filter0_d_904_35)">
<path d="M0 50.8257L7.77991 43H47.6629L57 52L47.6629 61L5.77148 60.5989L2.82631 55.9083L0 50.8257Z" fill="#BD3939"/>
<path d="M2 7.82566L9 0H50L59 9L49.6629 18L7.77148 17.5989L4.82631 12.9083L2 7.82566Z" fill="#BD3939"/>
<path d="M48.8257 57L41 49.2201V9.33714L50 0L59 9L58.5989 51.2285L53.9083 54.1737L48.8257 57Z" fill="#BD3939"/>
<path d="M7.82566 57L0 50.8242L0 9.33714L9 0L18 9.33714L17.5989 51.2285L12.9083 54.1737L7.82566 57Z" fill="#BD3939"/>
</g>
<g filter="url(#filter1_d_904_35)">
<path d="M39.1466 95.714L28 84.7104L36.4993 78.4626L40.6538 75L86.534 75.0321L95.5 84.7104L86.7584 95.714H39.1466Z" fill="#962C2C"/>
<path d="M39.1466 57.714L31 47L36.4993 40.4626L40.6538 37L86.534 37.0321L97.905 46.7104L86.7584 57.714H39.1466Z" fill="#962C2C"/>
<path d="M39 57.5L40.7807 42.8663L51.2084 44.4584L56.5946 44.9476L89.0141 77.4125L90.211 92.2966L74.5484 92.1955L39 57.5Z" fill="#962C2C"/>
</g>
<defs>
<filter id="filter0_d_904_35" x="0" y="0" width="79" height="81" filterUnits="userSpaceOnUse" color-interpolation-filters="sRGB">
<feFlood flood-opacity="0" result="BackgroundImageFix"/>
<feColorMatrix in="SourceAlpha" type="matrix" values="0 0 0 0 0 0 0 0 0 0 0 0 0 0 0 0 0 0 127 0" result="hardAlpha"/>
<feOffset dx="10" dy="10"/>
<feGaussianBlur stdDeviation="5"/>
<feComposite in2="hardAlpha" operator="out"/>
<feColorMatrix type="matrix" values="0 0 0 0 0 0 0 0 0 0 0 0 0 0 0 0 0 0 0.5 0"/>
<feBlend mode="normal" in2="BackgroundImageFix" result="effect1_dropShadow_904_35"/>
<feBlend mode="normal" in="SourceGraphic" in2="effect1_dropShadow_904_35" result="shape"/>
</filter>
<filter id="filter1_d_904_35" x="28" y="37" width="89.9048" height="78.7141" filterUnits="userSpaceOnUse" color-interpolation-filters="sRGB">
<feFlood flood-opacity="0" result="BackgroundImageFix"/>
<feColorMatrix in="SourceAlpha" type="matrix" values="0 0 0 0 0 0 0 0 0 0 0 0 0 0 0 0 0 0 127 0" result="hardAlpha"/>
<feOffset dx="10" dy="10"/>
<feGaussianBlur stdDeviation="5"/>
<feComposite in2="hardAlpha" operator="out"/>
<feColorMatrix type="matrix" values="0 0 0 0 0 0 0 0 0 0 0 0 0 0 0 0 0 0 0.5 0"/>
<feBlend mode="normal" in2="BackgroundImageFix" result="effect1_dropShadow_904_35"/>
<feBlend mode="normal" in="SourceGraphic" in2="effect1_dropShadow_904_35" result="shape"/>
</filter>
</defs>
</svg>
