<svg width="24" height="24" viewBox="0 0 24 24" fill="none" xmlns="http://www.w3.org/2000/svg">
<path d="M24 11.5C24 17.5751 18.6274 22.5 12 22.5C5.37258 22.5 0 17.5751 0 11.5C0 5.42487 5.37258 0.5 12 0.5C18.6274 0.5 24 5.42487 24 11.5ZM1.20105 11.5C1.20105 16.9671 6.0359 21.399 12 21.399C17.9641 21.399 22.799 16.9671 22.799 11.5C22.799 6.03291 17.9641 1.60096 12 1.60096C6.0359 1.60096 1.20105 6.03291 1.20105 11.5Z" fill="white"/>
<path d="M17.4659 9H15.7045C15.6004 8.49337 15.4181 8.0483 15.1577 7.66477C14.902 7.28125 14.5895 6.95928 14.2202 6.69886C13.8556 6.43371 13.4508 6.23485 13.0057 6.10227C12.5606 5.9697 12.0966 5.90341 11.6136 5.90341C10.733 5.90341 9.93513 6.12595 9.22017 6.57102C8.50994 7.0161 7.94413 7.67188 7.52273 8.53835C7.10606 9.40483 6.89773 10.4678 6.89773 11.7273C6.89773 12.9867 7.10606 14.0497 7.52273 14.9162C7.94413 15.7827 8.50994 16.4384 9.22017 16.8835C9.93513 17.3286 10.733 17.5511 11.6136 17.5511C12.0966 17.5511 12.5606 17.4848 13.0057 17.3523C13.4508 17.2197 13.8556 17.0232 14.2202 16.7628C14.5895 16.4976 14.902 16.1733 15.1577 15.7898C15.4181 15.4015 15.6004 14.9564 15.7045 14.4545H17.4659C17.3333 15.1979 17.0919 15.8632 16.7415 16.4503C16.3911 17.0374 15.9555 17.5369 15.4347 17.9489C14.9138 18.3561 14.3291 18.6662 13.6804 18.8793C13.0365 19.0923 12.3475 19.1989 11.6136 19.1989C10.3731 19.1989 9.26989 18.8958 8.30398 18.2898C7.33807 17.6837 6.57813 16.822 6.02415 15.7045C5.47017 14.5871 5.19318 13.2614 5.19318 11.7273C5.19318 10.1932 5.47017 8.86742 6.02415 7.75C6.57813 6.63258 7.33807 5.77083 8.30398 5.16477C9.26989 4.55871 10.3731 4.25568 11.6136 4.25568C12.3475 4.25568 13.0365 4.36222 13.6804 4.57528C14.3291 4.78835 14.9138 5.10085 15.4347 5.51278C15.9555 5.91998 16.3911 6.41714 16.7415 7.00426C17.0919 7.58665 17.3333 8.25189 17.4659 9Z" fill="white"/>
</svg>
