<?xml version="1.0" standalone="no"?>
<!DOCTYPE svg PUBLIC "-//W3C//DTD SVG 20010904//EN"
 "http://www.w3.org/TR/2001/REC-SVG-20010904/DTD/svg10.dtd">
<svg version="1.0" xmlns="http://www.w3.org/2000/svg"
 width="450.000000pt" height="450.000000pt" viewBox="0 0 450.000000 450.000000"
 preserveAspectRatio="xMidYMid meet">
<metadata>
Created by potrace 1.16, written by Peter Selinger 2001-2019
</metadata>
<g transform="translate(0.000000,450.000000) scale(0.115000,-0.115000)"
fill="#e6c400" stroke="none">
<path d="M1850 3630 c0 -5 -11 -10 -25 -10 -14 0 -25 -4 -25 -10 0 -5 -7 -10
-15 -10 -15 0 -85 -62 -85 -75 0 -4 -18 -24 -40 -45 -22 -21 -40 -46 -40 -54
0 -9 -4 -16 -10 -16 -5 0 -10 -9 -10 -20 0 -11 -5 -20 -11 -20 -16 0 -39 -26
-39 -44 0 -9 -4 -16 -10 -16 -5 0 -10 -11 -10 -25 0 -14 -4 -25 -10 -25 -5 0
-10 -9 -10 -20 0 -11 -4 -20 -10 -20 -5 0 -10 -9 -10 -20 0 -11 -4 -20 -10
-20 -5 0 -10 -13 -10 -28 0 -16 -8 -34 -20 -42 -11 -8 -20 -22 -20 -32 0 -10
-4 -18 -10 -18 -5 0 -10 -7 -10 -15 0 -8 -4 -15 -10 -15 -5 0 -10 -9 -10 -20
0 -11 -4 -20 -10 -20 -5 0 -10 -9 -10 -20 0 -11 -7 -20 -15 -20 -8 0 -15 -9
-15 -20 0 -11 -4 -20 -10 -20 -5 0 -10 -9 -10 -20 0 -11 -4 -20 -10 -20 -5 0
-10 -9 -10 -20 0 -11 -4 -20 -10 -20 -5 0 -10 -20 -10 -45 0 -25 -4 -45 -10
-45 -6 0 -10 -42 -10 -105 0 -63 4 -105 10 -105 6 0 10 -8 10 -18 0 -10 9 -24
20 -32 14 -10 20 -26 20 -52 0 -21 5 -38 10 -38 6 0 10 -9 10 -20 0 -11 7 -20
15 -20 11 0 15 -12 15 -45 0 -25 5 -45 10 -45 15 0 12 -29 -4 -46 -8 -8 -17
-14 -21 -14 -3 0 -28 -22 -55 -50 -27 -27 -56 -50 -64 -50 -10 0 -16 -9 -16
-23 0 -12 -9 -29 -20 -37 -11 -8 -20 -22 -20 -32 0 -10 -4 -18 -10 -18 -5 0
-10 -9 -10 -20 0 -11 -4 -20 -10 -20 -5 0 -10 -13 -10 -30 0 -20 -5 -30 -15
-30 -11 0 -14 -7 -10 -22 3 -13 1 -54 -3 -92 -9 -69 1 -136 20 -136 4 0 8 -11
8 -25 0 -14 5 -25 10 -25 6 0 10 -9 10 -20 0 -11 5 -20 10 -20 6 0 10 -9 10
-20 0 -11 5 -20 10 -20 6 0 10 -7 10 -15 0 -26 100 -116 121 -110 13 4 19 1
19 -9 0 -10 9 -16 21 -16 11 0 28 -7 37 -16 15 -15 14 -18 -3 -30 -10 -8 -25
-14 -32 -14 -8 0 -35 -11 -61 -25 -26 -14 -52 -25 -59 -25 -7 0 -67 -18 -134
-40 -143 -48 -123 -55 -218 80 -33 47 -65 90 -70 97 -6 7 -11 17 -11 22 0 5
-12 19 -27 31 -20 16 -37 20 -63 17 -57 -7 -82 -22 -140 -82 l-55 -56 2 -88
c1 -81 5 -96 38 -162 55 -110 75 -140 119 -180 56 -52 139 -75 168 -46 7 7 47
26 88 42 41 15 86 36 100 45 14 9 48 24 75 34 28 10 78 31 113 47 34 16 70 29
80 29 9 0 30 7 46 15 16 9 31 14 33 12 2 -2 25 6 51 19 l47 23 3 -75 c2 -40
-2 -83 -8 -93 -5 -11 -10 -38 -10 -60 l0 -41 40 0 40 0 0 140 c0 134 1 140 23
154 12 8 37 17 55 21 28 6 32 4 32 -14 0 -23 81 -111 103 -111 7 0 19 -9 27
-20 8 -11 25 -20 37 -20 13 0 23 -4 23 -10 0 -5 9 -10 20 -10 11 0 20 -4 20
-10 0 -5 18 -10 40 -10 22 0 40 -4 40 -10 0 -6 28 -10 65 -10 37 0 65 -4 65
-10 0 -5 23 -10 50 -10 28 0 50 5 50 10 0 6 28 10 65 10 37 0 65 4 65 10 0 6
14 10 30 10 17 0 30 5 30 10 0 6 7 10 16 10 8 0 33 18 54 40 21 22 43 40 49
40 6 0 11 9 11 20 0 11 5 20 10 20 6 0 10 14 10 31 0 17 6 37 14 45 17 16 126
20 126 4 0 -5 25 -10 55 -10 52 0 55 -1 55 -25 0 -14 -4 -25 -10 -25 -5 0 -10
-13 -10 -30 0 -16 -4 -30 -10 -30 -5 0 -10 -13 -10 -30 0 -20 -5 -30 -15 -30
-10 0 -15 -10 -15 -30 0 -16 -4 -30 -10 -30 -5 0 -10 -16 -10 -35 0 -19 -4
-35 -10 -35 -5 0 -10 -4 -10 -10 0 -5 16 -10 35 -10 33 0 35 2 35 35 0 19 5
35 10 35 6 0 10 9 10 20 0 11 5 20 10 20 6 0 10 14 10 30 0 17 5 30 10 30 6 0
10 14 10 30 0 17 5 30 10 30 6 0 10 20 10 45 l0 45 85 0 c50 0 85 4 85 10 0 6
9 10 20 10 11 0 20 5 20 10 0 6 8 10 18 10 10 0 24 9 32 20 8 11 21 20 30 20
9 0 22 9 30 20 8 11 18 20 23 20 14 0 57 48 57 65 0 8 5 15 10 15 6 0 10 7 10
15 0 8 5 15 10 15 6 0 10 9 10 20 0 11 5 20 10 20 6 0 10 14 10 30 0 17 5 30
10 30 6 0 10 18 10 40 0 22 5 40 10 40 6 0 10 11 10 25 0 14 -4 25 -10 25 -6
0 -10 30 -10 70 0 40 -4 70 -10 70 -5 0 -10 14 -10 30 0 17 -4 30 -10 30 -5 0
-10 10 -10 23 0 12 -9 29 -20 37 -11 8 -20 21 -20 29 0 7 -10 23 -22 34 -16
13 -19 21 -10 24 6 3 12 16 12 30 0 15 12 36 30 53 17 15 30 35 30 44 0 24
106 126 130 126 12 0 20 7 20 16 0 9 14 29 30 44 28 26 30 33 30 99 0 41 4 71
10 71 6 0 10 9 10 20 0 11 -4 20 -10 20 -6 0 -10 32 -10 75 0 43 -4 75 -10 75
-5 0 -10 18 -10 40 0 22 -4 40 -10 40 -5 0 -10 18 -10 40 0 22 -4 40 -10 40
-5 0 -10 11 -10 25 0 16 -6 25 -15 25 -10 0 -15 10 -15 30 0 17 -4 30 -10 30
-5 0 -10 23 -10 50 0 28 -4 50 -10 50 -5 0 -10 14 -10 30 0 17 5 30 10 30 6 0
10 -4 10 -10 0 -12 96 -41 114 -34 15 6 16 10 21 97 4 70 10 84 79 162 24 26
26 36 21 75 -12 79 -46 153 -92 198 -23 24 -43 39 -43 35 0 -4 -4 -3 -8 3 -13
21 -67 41 -96 37 -16 -2 -62 -22 -103 -43 -41 -22 -71 -35 -68 -30 3 6 -2 11
-12 11 -35 2 -76 8 -87 12 -24 9 -53 -12 -59 -42 -5 -25 -12 -31 -32 -31 -16
0 -25 6 -25 15 0 12 -14 15 -65 15 -51 0 -65 -3 -65 -15 0 -11 -11 -15 -40
-15 -22 0 -40 -4 -40 -10 0 -5 -16 -10 -35 -10 -19 0 -35 -4 -35 -10 0 -5 -9
-10 -20 -10 -11 0 -20 -4 -20 -10 0 -5 -9 -10 -20 -10 -11 0 -20 -4 -20 -10 0
-6 -38 -10 -95 -10 -57 0 -95 4 -95 10 0 6 -9 10 -20 10 -11 0 -20 5 -20 10 0
6 -9 10 -20 10 -11 0 -20 5 -20 10 0 6 -9 10 -20 10 -15 0 -20 7 -20 25 0 19
-5 25 -23 25 -12 0 -29 9 -37 20 -8 11 -21 20 -30 20 -9 0 -22 9 -30 20 -8 11
-22 20 -32 20 -10 0 -18 5 -18 10 0 6 -55 10 -145 10 -90 0 -145 -4 -145 -10z
m120 -20 c0 -6 32 -10 75 -10 43 0 75 -4 75 -10 0 -5 9 -10 20 -10 11 0 20 -4
20 -10 0 -5 9 -10 20 -10 11 0 20 -4 20 -10 0 -5 9 -10 20 -10 11 0 20 -5 20
-11 0 -12 25 -39 37 -39 5 0 15 -9 23 -20 8 -11 22 -20 32 -20 10 0 18 -4 18
-10 0 -5 9 -10 20 -10 11 0 20 -4 20 -10 0 -5 14 -10 30 -10 17 0 30 -4 30
-10 0 -6 35 -10 85 -10 50 0 85 4 85 10 0 6 9 10 20 10 11 0 20 5 20 10 0 6 9
10 20 10 11 0 20 5 20 10 0 6 16 10 35 10 19 0 35 5 35 10 0 6 14 10 30 10 17
0 30 5 30 10 0 6 32 10 75 10 43 0 75 -4 75 -10 0 -5 14 -10 30 -10 20 0 30
-5 30 -15 0 -30 49 -122 98 -185 64 -82 66 -85 135 -146 l57 -51 0 -72 c0 -41
4 -71 10 -71 6 0 10 -9 10 -20 0 -11 5 -20 10 -20 6 0 10 -13 10 -30 0 -16 5
-30 10 -30 6 0 10 -16 10 -35 0 -24 5 -35 15 -35 11 0 15 -11 15 -40 0 -22 5
-40 10 -40 6 0 10 -22 10 -50 0 -27 5 -50 10 -50 6 0 10 -38 10 -95 0 -57 -4
-95 -10 -95 -5 0 -10 -16 -10 -35 0 -19 -4 -35 -10 -35 -5 0 -10 -9 -10 -20 0
-11 -6 -20 -13 -20 -7 0 -19 -9 -27 -20 -8 -11 -21 -20 -30 -20 -9 0 -22 -9
-30 -20 -8 -11 -22 -20 -32 -20 -10 0 -18 -4 -18 -10 0 -5 -9 -10 -20 -10 -11
0 -20 -4 -20 -10 0 -5 -9 -10 -20 -10 -11 0 -20 -4 -20 -10 0 -5 -11 -10 -25
-10 -14 0 -25 -4 -25 -10 0 -5 -9 -10 -20 -10 -11 0 -20 -4 -20 -10 0 -5 -9
-10 -20 -10 -11 0 -20 5 -20 10 0 6 5 10 10 10 6 0 10 18 10 40 0 22 5 40 10
40 6 0 10 14 10 30 0 17 -4 30 -10 30 -5 0 -10 20 -10 45 0 25 -4 45 -10 45
-5 0 -10 9 -10 20 0 11 -4 20 -10 20 -5 0 -10 8 -10 18 0 10 -9 24 -20 32 -11
8 -20 20 -20 28 0 16 -24 42 -39 42 -6 0 -11 9 -11 20 0 15 7 20 25 20 14 0
25 5 25 11 0 6 22 32 50 59 27 27 50 56 50 64 0 9 5 16 10 16 6 0 10 9 10 20
0 11 5 20 10 20 6 0 10 9 10 20 0 11 5 20 10 20 6 0 10 20 10 45 0 33 4 45 15
45 12 0 15 19 15 115 0 96 -3 115 -15 115 -10 0 -15 10 -15 30 0 17 -4 30 -10
30 -5 0 -10 14 -10 30 0 17 -4 30 -10 30 -5 0 -10 8 -10 18 0 10 -9 24 -20 32
-11 8 -20 18 -20 23 0 14 -48 57 -65 57 -8 0 -15 5 -15 10 0 6 -11 10 -25 10
-14 0 -25 5 -25 10 0 6 -30 10 -70 10 -40 0 -70 -4 -70 -10 0 -5 -9 -10 -20
-10 -11 0 -20 -4 -20 -10 0 -5 -9 -10 -20 -10 -19 0 -70 -41 -70 -56 0 -3 -13
-19 -30 -34 -16 -15 -30 -34 -30 -42 0 -7 -9 -20 -20 -28 -12 -8 -20 -26 -20
-42 0 -15 -4 -28 -10 -28 -5 0 -10 -13 -10 -30 0 -16 -4 -30 -10 -30 -6 0 -10
-53 -10 -140 0 -87 4 -140 10 -140 6 0 10 -13 10 -30 0 -16 -4 -30 -10 -30 -5
0 -10 5 -10 10 0 6 -20 10 -45 10 -25 0 -45 5 -45 10 0 6 -33 10 -80 10 -47 0
-80 4 -80 10 0 6 -16 10 -35 10 -19 0 -35 -4 -35 -10 0 -5 -4 -10 -10 -10 -5
0 -10 9 -10 20 0 11 5 20 10 20 6 0 10 11 10 25 0 14 5 25 10 25 6 0 10 9 10
20 0 11 5 20 10 20 6 0 10 14 10 30 0 20 5 30 15 30 13 0 15 23 15 145 0 122
-2 145 -15 145 -10 0 -15 11 -15 35 0 19 -4 35 -10 35 -5 0 -10 8 -10 18 0 10
-9 24 -20 32 -11 8 -20 20 -20 28 0 18 -46 62 -65 62 -8 0 -15 5 -15 10 0 6
-9 10 -20 10 -11 0 -20 5 -20 10 0 6 -38 10 -95 10 -57 0 -95 -4 -95 -10 0 -5
-8 -10 -18 -10 -10 0 -24 -9 -32 -20 -8 -11 -18 -20 -22 -20 -15 0 -98 -89
-98 -105 0 -8 -4 -15 -10 -15 -5 0 -10 -11 -10 -25 0 -14 -4 -25 -10 -25 -5 0
-10 -9 -10 -20 0 -11 -4 -20 -10 -20 -5 0 -10 -18 -10 -40 0 -22 -4 -40 -10
-40 -6 0 -10 -42 -10 -105 0 -63 4 -105 10 -105 6 0 10 -18 10 -40 0 -22 5
-40 10 -40 6 0 10 -11 10 -25 0 -14 5 -25 10 -25 6 0 10 -7 10 -16 0 -8 18
-33 41 -55 36 -35 39 -41 25 -54 -8 -8 -20 -15 -26 -15 -12 0 -100 -85 -100
-98 0 -4 -9 -14 -20 -22 -11 -8 -20 -22 -20 -32 0 -10 -7 -18 -15 -18 -8 0
-15 -9 -15 -20 0 -11 -4 -20 -10 -20 -6 0 -10 -28 -10 -65 0 -37 -4 -65 -10
-65 -5 0 -10 7 -10 15 0 8 -7 15 -15 15 -9 0 -47 32 -85 70 -38 39 -72 70 -75
70 -19 0 -55 53 -55 80 0 16 -4 30 -10 30 -5 0 -10 18 -10 40 0 22 5 40 10 40
6 0 10 18 10 40 0 22 5 40 10 40 6 0 10 16 10 35 0 19 5 35 10 35 6 0 10 14
10 30 0 20 5 30 15 30 8 0 15 9 15 20 0 11 5 20 10 20 6 0 10 9 10 20 0 11 5
20 10 20 6 0 10 8 10 18 0 10 9 24 20 32 11 8 20 20 20 27 0 7 5 13 10 13 6 0
10 6 10 14 0 17 42 100 53 104 4 2 7 17 7 33 0 16 5 29 10 29 6 0 10 9 10 20
0 11 5 20 10 20 6 0 10 7 10 15 0 8 7 15 15 15 8 0 15 9 15 20 0 11 5 20 10
20 6 0 10 8 10 18 0 10 9 24 20 32 11 8 20 21 20 28 0 7 18 31 40 52 22 21 40
41 40 45 0 12 29 35 44 35 9 0 16 5 16 10 0 6 11 10 25 10 14 0 25 5 25 10 0
6 23 10 50 10 28 0 50 5 50 10 0 6 5 10 10 10 6 0 10 -4 10 -10z m1440 -12 c0
-4 7 -8 16 -8 9 0 25 -10 35 -22 11 -11 19 -18 19 -13 0 4 7 2 16 -6 10 -8 13
-21 9 -36 -4 -16 -1 -23 10 -23 8 0 15 -5 15 -12 0 -6 3 -8 7 -5 3 4 12 -5 19
-19 11 -20 11 -29 1 -45 -6 -10 -18 -19 -25 -19 -7 0 -10 5 -7 10 3 6 1 10 -5
10 -23 0 -3 -24 27 -32 35 -9 49 -41 26 -63 -8 -8 -12 -15 -9 -15 3 0 -2 -8
-11 -18 -18 -19 -39 -19 -27 0 4 5 -5 2 -19 -7 -14 -9 -30 -17 -34 -18 -4 -1
-7 -7 -5 -13 1 -7 -7 -9 -23 -6 -15 2 -25 0 -25 -7 0 -7 -5 -9 -10 -6 -6 4 2
18 20 35 16 15 30 33 30 40 0 7 8 9 20 5 10 -3 29 -1 41 6 20 10 20 12 6 21
-10 5 -22 6 -28 2 -8 -4 -8 -1 0 14 12 22 -2 41 -15 20 -5 -7 -10 -4 -16 11
-7 19 -11 21 -23 11 -12 -10 -15 -9 -15 4 0 9 -4 16 -10 16 -5 0 -10 7 -10 15
0 8 -4 15 -9 15 -9 0 -6 -55 4 -70 3 -5 12 -7 19 -4 8 3 17 1 21 -5 4 -7 0 -8
-11 -4 -13 5 -15 3 -9 -7 5 -9 4 -11 -3 -6 -19 12 -35 -3 -21 -20 9 -11 7 -14
-10 -14 -18 0 -21 4 -16 20 6 20 -9 28 -20 10 -10 -16 -25 -11 -18 6 5 14 3
15 -14 6 -17 -9 -19 -8 -17 11 1 12 3 26 3 30 1 5 7 5 14 1 9 -6 9 -4 -1 8
-11 14 -10 17 10 24 13 4 26 7 31 6 4 -1 7 4 7 12 0 11 -8 12 -35 6 -30 -7
-34 -6 -24 6 6 8 19 14 29 14 21 0 45 26 32 34 -5 3 -23 1 -41 -4 -42 -12 -39
-4 7 15 35 15 36 17 17 28 -11 6 -24 12 -30 12 -21 0 -16 35 7 44 27 11 78 10
78 -1z m-240 -57 c3 -4 13 -10 23 -14 9 -3 17 -17 17 -29 0 -16 3 -19 8 -10
11 16 39 6 53 -20 9 -17 8 -18 -10 -9 -24 13 -58 14 -65 2 -11 -17 12 -61 28
-55 10 4 30 -15 62 -60 26 -36 53 -67 61 -70 8 -3 25 2 39 10 13 9 28 14 32
10 6 -7 -24 -30 -40 -31 -5 0 -8 -4 -7 -10 0 -5 8 -8 17 -7 9 2 14 1 10 -3 -4
-4 1 -20 12 -35 11 -15 17 -29 15 -32 -3 -3 5 -16 18 -30 34 -37 50 -77 38
-95 -4 -7 -23 -5 -55 4 -36 11 -46 17 -35 24 11 7 9 9 -9 9 -13 0 -33 10 -46
23 -12 12 -31 23 -42 25 -10 2 -32 17 -47 35 -16 18 -33 31 -38 29 -6 -1 -8 2
-4 7 7 13 -36 81 -52 81 -20 0 -43 42 -37 67 5 18 3 22 -9 18 -8 -4 -17 1 -20
9 -4 10 -1 13 9 9 8 -3 14 1 14 11 0 9 0 19 0 24 0 4 -6 7 -12 7 -8 0 -13 12
-12 28 1 30 -11 25 -19 -8 -3 -11 -5 6 -6 37 -1 46 2 57 17 61 21 6 85 -2 92
-12z m-1110 -81 c0 -5 8 -10 18 -10 10 0 24 -9 32 -20 8 -11 22 -20 32 -20 11
0 18 -7 18 -18 0 -10 9 -24 20 -32 11 -8 20 -22 20 -32 0 -10 5 -18 10 -18 6
0 10 -11 10 -25 0 -14 5 -25 10 -25 6 0 10 -18 10 -40 0 -22 5 -40 10 -40 6 0
10 -35 10 -85 0 -50 -4 -85 -10 -85 -5 0 -10 -18 -10 -40 0 -22 -4 -40 -10
-40 -5 0 -10 -13 -10 -30 0 -16 -4 -30 -10 -30 -5 0 -10 -9 -10 -20 0 -11 -4
-20 -10 -20 -5 0 -10 -5 -10 -10 0 -6 -11 -22 -25 -35 -21 -22 -33 -25 -95
-25 -40 0 -70 -4 -70 -10 0 -5 -13 -10 -30 -10 -16 0 -30 -4 -30 -10 0 -5 -13
-10 -30 -10 -16 0 -30 -4 -30 -10 0 -5 -14 -10 -30 -10 -23 0 -42 11 -75 45
-25 24 -45 54 -45 65 0 11 -4 20 -10 20 -5 0 -10 14 -10 30 0 17 -4 30 -10 30
-6 0 -10 27 -10 60 0 33 -4 60 -10 60 -5 0 -10 11 -10 25 0 14 5 25 10 25 6 0
10 27 10 60 0 33 4 60 10 60 6 0 10 14 10 30 0 17 5 30 10 30 6 0 10 9 10 20
0 11 5 20 10 20 6 0 10 9 10 20 0 20 61 90 77 90 5 0 15 9 23 20 8 11 22 20
32 20 10 0 18 5 18 10 0 6 9 10 20 10 11 0 20 5 20 10 0 6 28 10 65 10 37 0
65 -4 65 -10z m930 -130 c8 -11 22 -20 32 -20 10 0 18 -6 18 -13 0 -7 9 -19
20 -27 11 -8 20 -22 20 -32 0 -10 5 -18 10 -18 6 0 10 -9 10 -20 0 -11 5 -20
10 -20 6 0 10 -9 10 -20 0 -11 5 -20 10 -20 6 0 10 -28 10 -65 0 -37 4 -65 10
-65 6 0 10 -13 10 -30 0 -16 -4 -30 -10 -30 -6 0 -10 -27 -10 -60 0 -33 -4
-60 -10 -60 -5 0 -10 -16 -10 -35 0 -19 -4 -35 -10 -35 -5 0 -10 -8 -10 -18 0
-10 -9 -24 -20 -32 -11 -8 -20 -20 -20 -28 0 -20 -67 -82 -90 -82 -11 0 -20
-4 -20 -10 0 -5 -9 -10 -20 -10 -11 0 -20 -7 -20 -15 0 -8 -4 -15 -10 -15 -5
0 -10 5 -10 11 0 15 -26 39 -42 39 -8 0 -20 9 -28 20 -8 11 -22 20 -32 20 -10
0 -18 5 -18 10 0 6 -11 10 -25 10 -14 0 -25 5 -25 10 0 6 -13 10 -30 10 -16 0
-30 5 -30 10 0 6 -7 10 -16 10 -20 0 -44 24 -44 44 0 9 -4 16 -10 16 -5 0 -10
20 -10 45 0 25 -4 45 -10 45 -6 0 -10 30 -10 70 0 40 4 70 10 70 6 0 10 20 10
45 0 25 5 45 10 45 6 0 10 14 10 30 0 17 5 30 10 30 6 0 10 9 10 20 0 11 5 20
10 20 6 0 10 7 10 16 0 8 18 33 40 54 22 21 40 43 40 49 0 6 7 11 15 11 8 0
15 5 15 10 0 6 9 10 20 10 11 0 20 5 20 10 0 6 38 10 93 10 81 0 94 -2 107
-20z m-600 -600 c0 -5 23 -10 50 -10 28 0 50 -4 50 -10 0 -5 20 -10 45 -10 25
0 45 -4 45 -10 0 -5 14 -10 30 -10 17 0 30 -4 30 -10 0 -5 9 -10 20 -10 11 0
20 -4 20 -10 0 -5 9 -10 20 -10 11 0 20 -4 20 -10 0 -5 11 -10 25 -10 14 0 25
-4 25 -10 0 -5 7 -10 16 -10 18 0 44 -23 44 -39 0 -6 7 -11 16 -11 8 0 37 -22
64 -50 27 -27 51 -50 55 -50 12 0 55 -50 55 -65 0 -8 5 -15 10 -15 6 0 10 -16
10 -35 0 -19 5 -35 10 -35 6 0 10 -30 10 -70 0 -40 -4 -70 -10 -70 -5 0 -10
-9 -10 -20 0 -11 -4 -20 -10 -20 -5 0 -10 -9 -10 -20 0 -19 -41 -70 -56 -70
-3 0 -19 -13 -34 -30 -15 -16 -35 -30 -44 -30 -9 0 -16 -4 -16 -10 0 -5 -9
-10 -20 -10 -11 0 -20 -4 -20 -10 0 -5 -9 -10 -20 -10 -11 0 -20 -4 -20 -10 0
-5 -16 -10 -35 -10 -19 0 -35 -4 -35 -10 0 -5 -13 -10 -30 -10 -16 0 -30 -4
-30 -10 0 -6 -27 -10 -60 -10 -47 0 -60 -3 -60 -15 0 -13 -21 -15 -125 -15
-104 0 -125 2 -125 15 0 12 -14 15 -65 15 -37 0 -65 4 -65 10 0 6 -18 10 -40
10 -22 0 -40 5 -40 10 0 6 -16 10 -35 10 -19 0 -35 5 -35 10 0 6 -9 10 -20 10
-11 0 -20 5 -20 10 0 6 -13 10 -28 10 -16 0 -34 8 -42 20 -8 11 -22 20 -32 20
-10 0 -18 5 -18 10 0 6 -10 10 -23 10 -12 0 -29 9 -37 20 -8 11 -20 20 -28 20
-14 0 -42 24 -42 35 0 4 -13 20 -30 35 -16 15 -30 34 -30 42 0 7 -9 20 -20 28
-11 8 -20 22 -20 32 0 10 -4 18 -10 18 -5 0 -10 18 -10 40 0 29 -4 40 -15 40
-11 0 -15 12 -15 45 0 33 4 45 15 45 10 0 15 10 15 28 0 16 8 34 20 42 11 8
20 21 20 30 0 9 9 22 20 30 11 8 20 18 20 23 0 14 48 57 65 57 8 0 15 5 15 10
0 6 9 10 20 10 11 0 20 5 20 10 0 6 11 10 25 10 14 0 25 5 25 10 0 6 9 10 20
10 11 0 20 5 20 10 0 6 18 10 40 10 22 0 40 5 40 10 0 6 28 10 65 10 37 0 65
4 65 10 0 6 55 10 145 10 90 0 145 -4 145 -10z m-820 -529 c0 -11 -6 -22 -12
-25 -10 -5 -10 -7 0 -12 6 -3 12 -14 12 -25 0 -13 7 -19 21 -19 47 0 64 -50
27 -81 l-21 -19 21 -19 c31 -26 28 -31 -23 -31 -38 0 -45 -3 -45 -20 0 -11 -4
-20 -10 -20 -5 0 -10 -20 -10 -45 0 -38 -3 -45 -20 -45 -11 0 -20 7 -20 15 0
10 -10 15 -30 15 -20 0 -30 -5 -30 -15 0 -8 -4 -15 -10 -15 -16 0 -12 -109 4
-126 8 -8 31 -14 50 -14 29 0 36 -4 36 -20 0 -11 -4 -20 -10 -20 -15 0 -12
-60 4 -76 10 -9 37 -14 85 -14 69 0 71 1 71 25 0 14 5 25 10 25 6 0 10 14 10
30 0 29 1 30 50 30 43 0 50 3 50 20 0 11 5 20 10 20 15 0 12 70 -4 86 -8 8
-22 14 -30 14 -12 0 -16 10 -16 41 0 42 17 69 44 69 9 0 16 5 16 10 0 6 -4 10
-10 10 -5 0 -10 5 -10 10 0 6 11 10 25 10 14 0 25 -4 25 -10 0 -5 8 -10 18
-10 10 0 24 -9 32 -20 8 -11 21 -20 29 -20 7 0 22 -10 33 -22 16 -19 21 -20
29 -8 8 11 12 12 16 3 2 -7 20 -13 39 -13 24 0 34 -5 34 -15 0 -8 -7 -15 -15
-15 -8 0 -15 -4 -15 -10 0 -5 11 -10 25 -10 14 0 25 5 25 10 0 6 5 10 10 10 6
0 10 -9 10 -20 0 -13 7 -20 20 -20 11 0 20 5 20 10 0 6 27 10 60 10 33 0 60
-4 60 -10 0 -6 32 -10 75 -10 43 0 75 -4 75 -10 0 -5 9 -10 20 -10 17 0 20 -7
20 -50 0 -27 -4 -50 -10 -50 -6 0 -10 -28 -10 -65 0 -37 4 -65 10 -65 6 0 10
-18 10 -40 0 -22 5 -40 10 -40 6 0 10 -9 10 -20 0 -11 5 -20 10 -20 6 0 10 -9
10 -20 0 -11 7 -20 15 -20 8 0 15 -5 15 -10 0 -16 88 -100 105 -100 8 0 15 -4
15 -10 0 -5 9 -10 20 -10 11 0 20 -4 20 -10 0 -5 25 -10 55 -10 30 0 55 -4 55
-10 0 -5 9 -10 20 -10 11 0 20 5 20 10 0 6 35 10 85 10 50 0 85 4 85 10 0 6 8
10 18 10 10 0 24 9 32 20 8 11 20 20 28 20 20 0 82 67 82 90 0 11 5 20 11 20
16 0 39 26 39 44 0 9 5 16 10 16 6 0 10 23 10 50 0 28 5 50 10 50 6 0 10 25
10 55 0 30 -4 55 -10 55 -5 0 -10 18 -10 40 0 22 -4 40 -10 40 -5 0 -10 7 -10
16 0 18 -23 44 -39 44 -6 0 -11 9 -11 20 0 24 -82 110 -105 110 -8 0 -15 5
-15 10 0 6 -9 10 -20 10 -13 0 -20 7 -20 20 0 13 7 20 20 20 11 0 20 5 20 10
0 6 9 10 20 10 11 0 20 -7 20 -15 0 -21 65 -85 85 -85 21 0 45 -24 45 -44 0
-9 5 -16 10 -16 6 0 10 -7 10 -15 0 -8 5 -15 10 -15 6 0 10 -13 10 -30 0 -16
5 -30 10 -30 6 0 10 -13 10 -30 0 -16 5 -30 10 -30 6 0 10 -38 10 -95 0 -57
-4 -95 -10 -95 -5 0 -10 -13 -10 -30 0 -16 -4 -30 -10 -30 -5 0 -10 -13 -10
-28 0 -16 -8 -34 -20 -42 -11 -8 -20 -23 -20 -33 0 -18 -22 -47 -35 -47 -4 0
-20 -13 -35 -30 -15 -16 -35 -30 -44 -30 -9 0 -16 -4 -16 -10 0 -5 -9 -10 -20
-10 -11 0 -20 -4 -20 -10 0 -5 -9 -10 -20 -10 -11 0 -20 -4 -20 -10 0 -6 -28
-10 -65 -10 -37 0 -65 -4 -65 -10 0 -6 -32 -10 -75 -10 -43 0 -75 4 -75 10 0
6 -13 10 -30 10 -16 0 -30 5 -30 10 0 6 -9 10 -20 10 -11 0 -20 5 -20 10 0 6
-7 10 -16 10 -9 0 -29 14 -44 30 -15 17 -37 30 -49 30 -13 0 -21 6 -21 18 0
10 -9 24 -20 32 -11 8 -20 20 -20 27 0 9 -20 13 -69 13 -46 0 -71 4 -75 13 -5
10 -7 10 -12 0 -7 -15 -34 -17 -34 -3 0 6 -37 10 -90 10 -53 0 -90 4 -90 10 0
6 -20 10 -45 10 -25 0 -45 5 -45 10 0 6 -13 10 -30 10 -16 0 -30 5 -30 10 0 6
-13 10 -30 10 -16 0 -30 5 -30 10 0 6 -19 10 -43 10 -31 0 -46 -5 -57 -20 -8
-11 -21 -20 -29 -20 -7 0 -21 -9 -30 -19 -9 -11 -54 -31 -99 -46 -45 -14 -84
-31 -87 -36 -8 -12 -55 -12 -55 1 0 6 -9 10 -20 10 -11 0 -20 7 -20 15 0 10
-10 15 -30 15 -16 0 -30 5 -30 10 0 6 -7 10 -15 10 -8 0 -15 5 -15 10 0 6 -7
10 -15 10 -20 0 -85 65 -85 85 0 8 -4 15 -10 15 -5 0 -10 8 -10 18 0 10 -9 24
-20 32 -13 9 -20 26 -20 47 0 18 -4 33 -10 33 -6 0 -10 48 -10 125 0 77 4 125
10 125 6 0 10 9 10 20 0 11 5 20 10 20 6 0 10 9 10 20 0 11 5 20 10 20 6 0 10
9 10 20 0 11 5 20 10 20 6 0 10 9 10 20 0 11 5 20 10 20 6 0 10 7 10 15 0 8 7
15 16 15 9 0 29 14 44 30 15 17 33 30 39 30 6 0 11 5 11 10 0 6 9 10 20 10 11
0 20 5 20 10 0 6 9 10 20 10 11 0 20 5 20 10 0 6 27 10 60 10 52 0 60 -2 60
-19z m1180 -421 c0 -11 -7 -20 -15 -20 -8 0 -15 -9 -15 -20 0 -11 7 -20 15
-20 12 0 15 -15 15 -75 0 -60 -3 -75 -15 -75 -8 0 -15 -4 -15 -10 0 -5 -9 -10
-20 -10 -11 0 -20 -4 -20 -10 0 -5 -20 -10 -45 -10 -51 0 -95 32 -95 70 0 11
-4 20 -10 20 -5 0 -10 11 -10 25 0 29 59 95 85 95 8 0 15 5 15 10 0 6 9 10 20
10 11 0 20 5 20 10 0 6 9 10 20 10 11 0 20 5 20 10 0 6 11 10 25 10 18 0 25
-5 25 -20z m355 -115 c32 -31 35 -40 35 -90 0 -58 -14 -85 -44 -85 -9 0 -16
-4 -16 -10 0 -5 -9 -10 -20 -10 -11 0 -20 -4 -20 -10 0 -5 -8 -10 -18 -10 -10
0 -24 -9 -32 -20 -8 -11 -25 -20 -37 -20 -13 0 -23 -4 -23 -10 0 -5 -9 -10
-20 -10 -11 0 -20 -7 -20 -15 0 -8 -9 -15 -20 -15 -11 0 -20 -4 -20 -10 0 -5
-22 -10 -50 -10 -27 0 -50 5 -50 10 0 6 -7 10 -15 10 -8 0 -15 7 -15 15 0 8
-4 15 -10 15 -16 0 -12 109 4 126 17 16 56 19 56 4 0 -5 -4 -10 -10 -10 -5 0
-10 -9 -10 -20 0 -11 -7 -20 -15 -20 -10 0 -15 -10 -15 -30 0 -16 5 -30 11
-30 14 0 39 -25 39 -39 0 -6 18 -11 40 -11 29 0 40 4 40 15 0 8 9 15 20 15 18
0 20 7 20 60 l0 60 -30 0 c-26 0 -30 4 -30 28 0 16 8 34 20 42 11 8 20 18 20
23 0 14 27 37 44 37 9 0 16 5 16 10 0 6 10 10 23 10 12 0 29 9 37 20 24 33 74
26 115 -15z m-1235 -225 c0 -5 14 -10 30 -10 17 0 30 -4 30 -10 0 -5 14 -10
30 -10 17 0 30 -4 30 -10 0 -5 16 -10 35 -10 24 0 35 -5 35 -15 0 -13 21 -15
125 -15 77 0 125 -4 125 -10 0 -5 9 -10 20 -10 11 0 20 5 20 10 0 6 14 10 30
10 17 0 30 -4 30 -10 0 -5 9 -10 20 -10 13 0 20 -7 20 -18 0 -10 9 -24 20 -32
17 -13 20 -26 20 -105 0 -79 -3 -92 -20 -105 -11 -8 -20 -22 -20 -32 0 -11 -7
-18 -20 -18 -11 0 -20 -4 -20 -10 0 -5 -9 -10 -20 -10 -11 0 -20 -4 -20 -10 0
-5 -13 -10 -30 -10 -16 0 -30 -4 -30 -10 0 -6 -53 -10 -140 -10 -87 0 -140 4
-140 10 0 6 -22 10 -50 10 -27 0 -50 5 -50 10 0 6 -9 10 -20 10 -11 0 -20 5
-20 10 0 6 -13 10 -30 10 -16 0 -30 5 -30 10 0 6 -9 10 -20 10 -20 0 -90 61
-90 77 0 5 -9 15 -20 23 -11 8 -20 22 -20 32 0 10 -5 27 -12 38 -10 15 -10 26
0 53 7 18 12 45 12 60 0 15 5 27 10 27 6 0 10 5 10 10 0 6 15 26 33 45 28 30
38 34 85 34 28 1 52 -3 52 -9z m-1104 -8 c11 -7 151 -198 188 -255 13 -22 23
-28 39 -24 67 16 307 95 318 104 8 6 57 24 109 39 52 15 102 33 110 40 8 6 40
19 70 28 30 10 61 19 68 22 8 2 7 -7 -5 -29 -12 -22 -18 -55 -18 -104 0 -55
-3 -73 -14 -73 -7 0 -30 -9 -50 -19 -20 -11 -74 -31 -121 -46 -47 -15 -96 -33
-110 -40 -14 -7 -62 -25 -108 -39 -46 -15 -100 -36 -120 -46 -20 -11 -40 -20
-43 -20 -4 0 -58 -24 -120 -54 -63 -30 -126 -57 -140 -61 -32 -8 -90 15 -124
49 -14 14 -25 22 -25 18 0 -17 -51 71 -74 129 -15 35 -32 73 -38 84 -6 11 -13
52 -16 91 l-4 71 58 60 c41 42 71 63 99 70 51 14 58 14 71 5z"/>
<path d="M2060 2960 c0 -5 -9 -10 -21 -10 -11 0 -27 -6 -35 -14 -16 -17 -20
-106 -4 -106 6 0 10 -7 10 -15 0 -9 9 -15 24 -15 13 0 27 -6 30 -12 5 -10 7
-10 12 0 3 6 19 12 35 12 24 0 29 4 29 25 0 14 5 25 10 25 6 0 10 14 10 30 0
17 -4 30 -10 30 -5 0 -10 9 -10 20 0 13 -7 20 -20 20 -11 0 -20 5 -20 10 0 6
-9 10 -20 10 -11 0 -20 -4 -20 -10z"/>
<path d="M2643 2865 c-17 -18 -23 -36 -23 -70 0 -59 16 -75 75 -75 35 0 51 6
70 25 25 24 35 85 15 85 -5 0 -10 9 -10 20 0 15 -7 20 -25 20 -14 0 -25 5 -25
10 0 19 -55 9 -77 -15z"/>
<path d="M2030 1710 c0 -5 -9 -10 -20 -10 -11 0 -20 -4 -20 -10 0 -5 -7 -10
-16 -10 -39 0 -60 -66 -30 -96 17 -16 46 -19 46 -4 0 6 9 10 20 10 11 0 20 7
20 15 0 9 9 15 21 15 31 0 49 24 49 64 0 34 -2 36 -35 36 -19 0 -35 -4 -35
-10z"/>
<path d="M2290 1690 c0 -5 -11 -10 -25 -10 -14 0 -25 -4 -25 -10 0 -5 -7 -10
-15 -10 -21 0 -65 -45 -65 -65 0 -9 6 -23 14 -31 17 -16 66 -19 66 -4 0 6 9
10 21 10 20 0 49 21 49 36 0 3 10 16 23 27 15 13 18 21 10 24 -7 3 -13 13 -13
24 0 12 -7 19 -20 19 -11 0 -20 -4 -20 -10z"/>
<path d="M2600 1710 c0 -5 -9 -10 -20 -10 -17 0 -20 -7 -20 -51 0 -52 15 -79
44 -79 9 0 16 -4 16 -10 0 -5 9 -10 20 -10 11 0 20 5 20 10 0 6 7 10 16 10 48
0 61 84 19 125 -25 25 -95 36 -95 15z"/>
<path d="M3040 1670 c0 -5 -13 -10 -30 -10 -23 0 -30 -4 -30 -20 0 -11 -7 -20
-15 -20 -11 0 -15 -12 -15 -45 0 -30 4 -45 13 -45 7 0 19 -9 27 -20 21 -29 74
-27 105 5 44 43 30 145 -19 145 -9 0 -16 5 -16 10 0 6 -4 10 -10 10 -5 0 -10
-4 -10 -10z"/>
<path d="M818 1125 c-35 -24 -78 -94 -78 -128 0 -30 37 -57 78 -57 73 0 142
68 142 141 0 69 -72 92 -142 44z"/>
</g>
</svg>
