<svg width="111" height="111" viewBox="0 0 111 111" fill="none" xmlns="http://www.w3.org/2000/svg">
<g filter="url(#filter0_d_3_43)">
<rect x="4" width="103" height="103" rx="16" fill="#141414"/>
<path d="M92 52C92 58.2552 90.4141 64.4083 87.3907 69.8842C84.3672 75.3602 80.0047 79.9802 74.7111 83.3125C69.4174 86.6449 63.3653 88.5807 57.1204 88.9392C50.8755 89.2977 44.6416 88.067 39.0014 85.3623C33.3612 82.6576 28.4987 78.5671 24.8685 73.4731C21.2383 68.3791 18.9588 62.4479 18.243 56.2338C17.5273 50.0197 18.3986 43.7255 20.7757 37.9396C23.1527 32.1536 26.9578 27.0648 31.8354 23.1486L36.4074 28.8429C32.4925 31.9862 29.4384 36.0707 27.5305 40.7147C25.6226 45.3586 24.9232 50.4105 25.4977 55.3982C26.0722 60.3858 27.9018 65.1464 30.8155 69.235C33.7292 73.3236 37.632 76.6068 42.159 78.7777C46.686 80.9486 51.6895 81.9363 56.7019 81.6486C61.7142 81.3609 66.5718 79.8071 70.8207 77.1324C75.0696 74.4578 78.571 70.7496 80.9978 66.3545C83.4245 61.9593 84.6974 57.0206 84.6974 52H92Z" fill="#C4C4C4"/>
<path d="M79 52C79 56.0547 77.9727 60.0433 76.014 63.5936C74.0553 67.1438 71.2291 70.14 67.799 72.3023C64.369 74.4647 60.4471 75.7228 56.3993 75.9592C52.3514 76.1956 48.3097 75.4026 44.6513 73.6542C40.9929 71.9058 37.8371 69.2591 35.4784 65.9609C33.1198 62.6628 31.6352 58.8209 31.1632 54.7938C30.6912 50.7666 31.2472 46.6855 32.7793 42.9314C34.3114 39.1773 36.7697 35.8725 39.9246 33.3256L43.2097 37.3949C40.7422 39.3868 38.8196 41.9714 37.6213 44.9075C36.4231 47.8436 35.9882 51.0354 36.3574 54.185C36.7265 57.3346 37.8876 60.3393 39.7323 62.9188C41.577 65.4982 44.0451 67.5682 46.9063 68.9356C49.7676 70.303 52.9286 70.9232 56.0943 70.7383C59.2601 70.5534 62.3275 69.5695 65.01 67.8783C67.6926 66.1871 69.903 63.8439 71.4349 61.0673C72.9668 58.2906 73.7702 55.1712 73.7702 52H79Z" fill="#C4C4C4"/>
</g>
<defs>
<filter id="filter0_d_3_43" x="0" y="0" width="111" height="111">
<feFlood flood-opacity="0" result="BackgroundImageFix"/>
<feColorMatrix in="SourceAlpha" type="matrix" values="0 0 0 0 0 0 0 0 0 0 0 0 0 0 0 0 0 0 127 0" result="hardAlpha"/>
<feOffset dy="4"/>
<feGaussianBlur stdDeviation="2"/>
<feComposite in2="hardAlpha" operator="out"/>
<feColorMatrix type="matrix" values="0 0 0 0 0 0 0 0 0 0 0 0 0 0 0 0 0 0 0.25 0"/>
<feBlend mode="normal" in2="BackgroundImageFix" result="effect1_dropShadow_3_43"/>
<feBlend mode="normal" in="SourceGraphic" in2="effect1_dropShadow_3_43" result="shape"/>
</filter>
</defs>
</svg>
