<svg width="113" height="113" viewBox="0 0 113 113" fill="none" xmlns="http://www.w3.org/2000/svg">
<path d="M43.6223 52.3264L60.9464 69.6505L56.3502 77.7822L35.137 56.569L43.6223 52.3264Z" fill="#C21C1C"/>
<path d="M54.7821 77.6268L35.3798 58.2245C34.9065 57.7512 35.0228 56.9556 35.6117 56.6375L44.0247 52.0938C44.4137 51.8837 44.8944 51.954 45.207 52.2666L61.3849 68.4445C61.7222 68.7818 61.7743 69.3103 61.5093 69.707L56.3208 77.4751C55.9705 77.9996 55.2281 78.0728 54.7821 77.6268Z" stroke="#420C0C" stroke-width="2"/>
<path d="M66.9573 38.8909L74.382 46.3155L63.0682 59.7506L64.836 62.2255L60.5934 66.4681L47.1583 53.0331L52.1081 49.4975L53.8759 50.5582L66.9573 38.8909Z" fill="#C21C1C"/>
<path d="M53.4853 50.501L66.8373 39.3129C67.2346 38.98 67.8203 39.0058 68.1867 39.3723L74.1042 45.2897C74.4706 45.6562 74.4964 46.2419 74.1636 46.6391L62.9754 59.9912" stroke="#420C0C" stroke-width="2"/>
<path d="M46.789 53.8497L51.1044 49.5343C51.4949 49.1437 52.1281 49.1437 52.5186 49.5343L64.5022 61.5179C64.8928 61.9084 64.8928 62.5415 64.5022 62.9321L60.1868 67.2475" stroke="#420C0C" stroke-width="2"/>
<path d="M93.4741 19.4458C92.1632 35.9803 88.927 42.5536 75.4429 45.9623L67.3112 37.8306C70.6315 25.19 76.8758 21.5732 93.4741 19.4458Z" fill="#C21C1C"/>
<path d="M92.5542 29.2983L84.3415 29.6957" stroke="#420C0C" stroke-width="2"/>
<path d="M67.3234 38.5084C69.6356 26.1031 75.5699 22.0161 92.9408 19.6546C93.5869 19.5667 94.1439 20.1214 94.0583 20.7678C91.7544 38.1714 87.2811 43.5993 74.8054 45.9904" stroke="#420C0C" stroke-width="2"/>
<path d="M59.9025 84.4408L59.9026 84.4408L60.9602 84.4965L56.6308 85.8401L26.3925 55.6018L27.7734 51.7351L27.7734 52.2513C27.7734 52.5643 27.8978 52.8644 28.1191 53.0857L59.1302 84.0968C59.3363 84.303 59.6114 84.4255 59.9025 84.4408Z" stroke="#9F9F9F" stroke-width="2"/>
<path d="M31.541 83.0855L31.541 82.0855L30.541 82.0855H29.541L29.3101 81.8546L28.7732 81.3178L40.0869 70.0041L43.6224 73.5396L32.3087 84.8533L31.6016 84.1462L31.541 84.0855V83.0855Z" stroke="#9F9F9F" stroke-width="2"/>
<rect x="20.4453" y="82.1816" width="11" height="11" rx="1" stroke="#9F9F9F" stroke-width="2"/>
</svg>
