<svg width="69" height="67" viewBox="0 0 69 67" fill="none" xmlns="http://www.w3.org/2000/svg">
<g clip-path="url(#clip0_1312_20)">
<path fill-rule="evenodd" clip-rule="evenodd" d="M34.3972 0C15.3764 0 0 15.3542 0 34.3494C0 49.5332 9.85221 62.3861 23.5198 66.9351C25.2287 67.2771 25.8546 66.196 25.8546 65.2866C25.8546 64.4903 25.7983 61.7607 25.7983 58.9167C16.2298 60.9644 14.2372 54.8221 14.2372 54.8221C12.6995 50.8411 10.4211 49.818 10.4211 49.818C7.28936 47.7138 10.6492 47.7138 10.6492 47.7138C14.1232 47.9413 15.946 51.2396 15.946 51.2396C19.0208 56.4712 23.9754 54.993 25.9686 54.083C26.2531 51.865 27.1649 50.3296 28.133 49.4767C20.5014 48.6804 12.4721 45.7233 12.4721 32.5292C12.4721 28.7758 13.838 25.705 16.0024 23.3167C15.6609 22.4638 14.4647 18.9373 16.3446 14.2173C16.3446 14.2173 19.2489 13.3072 25.7976 17.7431C28.6013 16.9912 31.4927 16.6087 34.3972 16.6055C37.3015 16.6055 40.2622 17.004 42.9962 17.7431C49.5455 13.3072 52.4499 14.2173 52.4499 14.2173C54.3298 18.9373 53.1328 22.4638 52.7913 23.3167C55.0127 25.705 56.3223 28.7758 56.3223 32.5292C56.3223 45.7233 48.293 48.6232 40.6044 49.4767C41.8577 50.5571 42.9391 52.6041 42.9391 55.8459C42.9391 60.4521 42.8828 64.149 42.8828 65.2859C42.8828 66.196 43.5094 67.2771 45.2175 66.9358C58.8852 62.3854 68.7374 49.5332 68.7374 34.3494C68.7937 15.3542 53.3609 0 34.3972 0Z" fill="white"/>
</g>
<defs>
<clipPath id="clip0_1312_20">
<rect width="69" height="67" fill="white"/>
</clipPath>
</defs>
</svg>
