<svg width="105" height="89" viewBox="0 0 105 89" fill="none" xmlns="http://www.w3.org/2000/svg">
<rect x="52.5" y="30.5635" width="31.7442" height="31.7442" rx="3" transform="rotate(-49.5 52.5 30.5635)" fill="#DB5252"/>
<path d="M14.9373 51.3799L46.3493 55.7946L26.8201 80.7909L14.9373 51.3799Z" fill="#DBAC52"/>
<path d="M20.1461 5.81445L21.5196 11.6902L17.0938 18.6342L24.2667 23.4416L31.1344 28.4017L27.0138 35.1931L23.1984 41.8319L31.1344 47.3261V52.8203" stroke="#5289DB"/>
<rect x="4.80078" y="5.59863" width="28.0814" height="3.66279" transform="rotate(-11.5 4.80078 5.59863)" fill="#5289DB"/>
<g filter="url(#filter0_d_1312_57)">
<path d="M7.09647 37.376V44H5.16447V27.9H10.9145C11.7425 27.9 12.4631 28.0227 13.0765 28.268C13.6898 28.498 14.1958 28.8123 14.5945 29.211C15.0085 29.6097 15.3151 30.0773 15.5145 30.614C15.7291 31.1353 15.8365 31.6873 15.8365 32.27V32.96C15.8365 33.5427 15.7291 34.1023 15.5145 34.639C15.3151 35.1757 15.0085 35.651 14.5945 36.065C14.1805 36.4637 13.6668 36.7857 13.0535 37.031C12.4401 37.261 11.7271 37.376 10.9145 37.376H7.09647ZM7.09647 35.582H10.6845C12.8311 35.582 13.9045 34.662 13.9045 32.822V32.408C13.9045 31.5953 13.6361 30.9437 13.0995 30.453C12.5781 29.947 11.7731 29.694 10.6845 29.694H7.09647V35.582ZM18.6495 32.592H22.7895V34.11H23.0655C23.3568 33.4813 23.7708 33.0213 24.3075 32.73C24.8441 32.4233 25.4575 32.27 26.1475 32.27C27.2975 32.27 28.2251 32.6457 28.9305 33.397C29.6358 34.1483 30.0115 35.2447 30.0575 36.686L28.1715 36.962C28.1715 35.904 27.9185 35.145 27.4125 34.685C26.9065 34.2097 26.2855 33.972 25.5495 33.972C25.0741 33.972 24.6601 34.064 24.3075 34.248C23.9701 34.432 23.6865 34.685 23.4565 35.007C23.2265 35.329 23.0578 35.7047 22.9505 36.134C22.8431 36.5633 22.7895 37.0233 22.7895 37.514V42.344H25.6875V44H18.3735V42.344H20.9955V34.248H18.6495V32.592ZM44.1405 38.434C44.1405 39.3847 43.9795 40.228 43.6575 40.964C43.3508 41.6847 42.9368 42.298 42.4155 42.804C41.8942 43.2947 41.2808 43.6703 40.5755 43.931C39.8855 44.1917 39.1648 44.322 38.4135 44.322C37.6468 44.322 36.9185 44.1917 36.2285 43.931C35.5385 43.6703 34.9328 43.2947 34.4115 42.804C33.8902 42.298 33.4685 41.6847 33.1465 40.964C32.8398 40.228 32.6865 39.3847 32.6865 38.434V38.158C32.6865 37.2227 32.8398 36.3947 33.1465 35.674C33.4685 34.938 33.8902 34.317 34.4115 33.811C34.9482 33.305 35.5615 32.9217 36.2515 32.661C36.9415 32.4003 37.6622 32.27 38.4135 32.27C39.1648 32.27 39.8855 32.4003 40.5755 32.661C41.2655 32.9217 41.8712 33.305 42.3925 33.811C42.9292 34.317 43.3508 34.938 43.6575 35.674C43.9795 36.3947 44.1405 37.2227 44.1405 38.158V38.434ZM38.4135 42.62C38.9655 42.62 39.4715 42.528 39.9315 42.344C40.4068 42.1447 40.8208 41.861 41.1735 41.493C41.5262 41.125 41.8022 40.688 42.0015 40.182C42.2008 39.6607 42.3005 39.078 42.3005 38.434V38.158C42.3005 37.5447 42.2008 36.985 42.0015 36.479C41.8022 35.9577 41.5262 35.513 41.1735 35.145C40.8208 34.777 40.4068 34.4933 39.9315 34.294C39.4562 34.0793 38.9502 33.972 38.4135 33.972C37.8768 33.972 37.3708 34.0793 36.8955 34.294C36.4202 34.4933 36.0062 34.777 35.6535 35.145C35.3008 35.513 35.0248 35.9577 34.8255 36.479C34.6262 36.985 34.5265 37.5447 34.5265 38.158V38.434C34.5265 39.078 34.6262 39.6607 34.8255 40.182C35.0248 40.688 35.3008 41.125 35.6535 41.493C36.0062 41.861 36.4125 42.1447 36.8725 42.344C37.3478 42.528 37.8615 42.62 38.4135 42.62ZM55.5785 32.592H57.6255L54.2675 38.02V38.296L57.9015 44H55.8085L52.7035 38.986H52.2895L49.1845 44H47.0915L50.7255 38.296V38.02L47.3675 32.592H49.4145L52.2895 37.33H52.7035L55.5785 32.592ZM65.0845 29.188C65.0845 28.7433 65.2378 28.3677 65.5445 28.061C65.8665 27.739 66.2498 27.578 66.6945 27.578C67.1392 27.578 67.5148 27.739 67.8215 28.061C68.1435 28.3677 68.3045 28.7433 68.3045 29.188C68.3045 29.6327 68.1435 30.016 67.8215 30.338C67.5148 30.6447 67.1392 30.798 66.6945 30.798C66.2498 30.798 65.8665 30.6447 65.5445 30.338C65.2378 30.016 65.0845 29.6327 65.0845 29.188ZM61.8185 42.344H65.8205V34.248H62.2325V32.592H67.6145V42.344H71.3405V44H61.8185V42.344ZM86.5965 44H84.8025V35.812C84.8025 35.2753 84.6798 34.8383 84.4345 34.501C84.1892 34.1483 83.7982 33.972 83.2615 33.972C82.7555 33.972 82.3415 34.1637 82.0195 34.547C81.7128 34.915 81.5595 35.49 81.5595 36.272V44H79.7655V35.72C79.7655 35.214 79.6275 34.8 79.3515 34.478C79.0755 34.1407 78.7075 33.972 78.2475 33.972C77.6955 33.972 77.2662 34.1713 76.9595 34.57C76.6682 34.9687 76.5225 35.49 76.5225 36.134V44H74.7285V32.592H76.5225V33.834H76.7985C76.9978 33.2973 77.2892 32.9063 77.6725 32.661C78.0558 32.4003 78.5082 32.27 79.0295 32.27C79.5815 32.27 80.0338 32.4157 80.3865 32.707C80.7545 32.9983 81.0075 33.374 81.1455 33.834H81.4215C81.9428 32.7913 82.7708 32.27 83.9055 32.27C84.7642 32.27 85.4235 32.546 85.8835 33.098C86.3588 33.6347 86.5965 34.34 86.5965 35.214V44ZM97.9885 42.068H97.7125C97.3445 42.8347 96.8309 43.402 96.1715 43.77C95.5275 44.138 94.8452 44.322 94.1245 44.322C93.3732 44.322 92.6755 44.1993 92.0315 43.954C91.3875 43.6933 90.8202 43.3177 90.3295 42.827C89.8542 42.321 89.4785 41.7077 89.2025 40.987C88.9265 40.2663 88.7885 39.4307 88.7885 38.48V38.112C88.7885 37.1767 88.9265 36.3487 89.2025 35.628C89.4785 34.9073 89.8542 34.3017 90.3295 33.811C90.8202 33.305 91.3875 32.9217 92.0315 32.661C92.6755 32.4003 93.3579 32.27 94.0785 32.27C94.8605 32.27 95.5659 32.4463 96.1945 32.799C96.8385 33.1363 97.3445 33.6653 97.7125 34.386H97.9885V32.592H99.7825V41.654C99.7825 42.114 99.9895 42.344 100.404 42.344H100.979V44H99.7595C99.2382 44 98.8089 43.8313 98.4715 43.494C98.1495 43.1567 97.9885 42.7273 97.9885 42.206V42.068ZM94.3085 42.62C94.8452 42.62 95.3359 42.5203 95.7805 42.321C96.2405 42.1217 96.6315 41.838 96.9535 41.47C97.2755 41.102 97.5285 40.665 97.7125 40.159C97.8965 39.6377 97.9885 39.0627 97.9885 38.434V38.158C97.9885 37.5447 97.8965 36.985 97.7125 36.479C97.5285 35.9577 97.2679 35.513 96.9305 35.145C96.6085 34.777 96.2175 34.4933 95.7575 34.294C95.3129 34.0793 94.8299 33.972 94.3085 33.972C93.7719 33.972 93.2812 34.0717 92.8365 34.271C92.3919 34.4703 92.0009 34.754 91.6635 35.122C91.3415 35.4747 91.0885 35.9117 90.9045 36.433C90.7205 36.939 90.6285 37.4987 90.6285 38.112V38.48C90.6285 39.7833 90.9659 40.803 91.6405 41.539C92.3305 42.2597 93.2199 42.62 94.3085 42.62ZM29.6563 54.02C29.6563 53.7933 29.6096 53.5933 29.5163 53.42C29.4296 53.2467 29.3096 53.1033 29.1563 52.99C29.003 52.8767 28.8263 52.79 28.6263 52.73C28.4263 52.67 28.2163 52.64 27.9963 52.64C27.803 52.64 27.6196 52.6667 27.4463 52.72C27.273 52.7667 27.1163 52.8367 26.9763 52.93C26.843 53.0233 26.7363 53.14 26.6563 53.28C26.5763 53.4133 26.5363 53.57 26.5363 53.75V53.81C26.5363 54.0033 26.5763 54.17 26.6563 54.31C26.7363 54.4433 26.853 54.56 27.0063 54.66C27.1663 54.7533 27.363 54.8333 27.5963 54.9C27.8296 54.96 28.103 55.0133 28.4163 55.06C29.1496 55.1733 29.6896 55.39 30.0363 55.71C30.383 56.0233 30.5563 56.4467 30.5563 56.98V57.1C30.5563 57.4 30.503 57.6767 30.3963 57.93C30.2963 58.1767 30.143 58.39 29.9363 58.57C29.7363 58.75 29.4863 58.89 29.1863 58.99C28.8863 59.09 28.5396 59.14 28.1463 59.14C27.6996 59.14 27.303 59.0767 26.9563 58.95C26.6163 58.8167 26.3296 58.6367 26.0963 58.41C25.8696 58.1767 25.6963 57.9067 25.5763 57.6C25.4563 57.2867 25.3963 56.9467 25.3963 56.58V56.28H26.2363V56.52C26.2363 57.1333 26.403 57.5933 26.7363 57.9C27.0763 58.2067 27.5463 58.36 28.1463 58.36C28.6663 58.36 29.0563 58.2467 29.3163 58.02C29.583 57.7867 29.7163 57.48 29.7163 57.1V57.04C29.7163 56.6733 29.5796 56.3933 29.3063 56.2C29.0396 56.0067 28.603 55.8667 27.9963 55.78C27.643 55.7333 27.323 55.6633 27.0363 55.57C26.7563 55.47 26.5163 55.3433 26.3163 55.19C26.1163 55.03 25.963 54.84 25.8563 54.62C25.7496 54.4 25.6963 54.14 25.6963 53.84V53.72C25.6963 53.4467 25.753 53.1967 25.8663 52.97C25.9796 52.7433 26.1363 52.5467 26.3363 52.38C26.543 52.2133 26.7863 52.0867 27.0663 52C27.353 51.9067 27.6663 51.86 28.0063 51.86C28.3996 51.86 28.7496 51.9167 29.0563 52.03C29.3696 52.1433 29.633 52.2967 29.8463 52.49C30.0596 52.6767 30.2196 52.9 30.3263 53.16C30.4396 53.4133 30.4963 53.68 30.4963 53.96V54.38H29.6563V54.02ZM33.4793 52.56C33.4793 52.3667 33.546 52.2033 33.6793 52.07C33.8193 51.93 33.986 51.86 34.1793 51.86C34.3727 51.86 34.536 51.93 34.6693 52.07C34.8093 52.2033 34.8793 52.3667 34.8793 52.56C34.8793 52.7533 34.8093 52.92 34.6693 53.06C34.536 53.1933 34.3727 53.26 34.1793 53.26C33.986 53.26 33.8193 53.1933 33.6793 53.06C33.546 52.92 33.4793 52.7533 33.4793 52.56ZM32.0593 58.28H33.7993V54.76H32.2393V54.04H34.5793V58.28H36.1993V59H32.0593V58.28ZM42.8324 59H42.0524V55.44C42.0524 55.2067 41.999 55.0167 41.8924 54.87C41.7857 54.7167 41.6157 54.64 41.3824 54.64C41.1624 54.64 40.9824 54.7233 40.8424 54.89C40.709 55.05 40.6424 55.3 40.6424 55.64V59H39.8624V55.4C39.8624 55.18 39.8024 55 39.6824 54.86C39.5624 54.7133 39.4024 54.64 39.2024 54.64C38.9624 54.64 38.7757 54.7267 38.6424 54.9C38.5157 55.0733 38.4524 55.3 38.4524 55.58V59H37.6724V54.04H38.4524V54.58H38.5724C38.659 54.3467 38.7857 54.1767 38.9524 54.07C39.119 53.9567 39.3157 53.9 39.5424 53.9C39.7824 53.9 39.979 53.9633 40.1324 54.09C40.2924 54.2167 40.4024 54.38 40.4624 54.58H40.5824C40.809 54.1267 41.169 53.9 41.6624 53.9C42.0357 53.9 42.3224 54.02 42.5224 54.26C42.729 54.4933 42.8324 54.8 42.8324 55.18V59ZM47.7254 54.04H48.5054V59H47.7254V58.1H47.6054C47.4454 58.42 47.2354 58.6733 46.9754 58.86C46.7154 59.0467 46.3854 59.14 45.9854 59.14C45.7121 59.14 45.4588 59.0933 45.2254 59C44.9988 58.9133 44.8021 58.78 44.6354 58.6C44.4754 58.42 44.3488 58.1967 44.2554 57.93C44.1688 57.6633 44.1254 57.3533 44.1254 57V54.04H44.9054V56.9C44.9054 57.42 45.0121 57.8 45.2254 58.04C45.4388 58.28 45.7654 58.4 46.2054 58.4C46.6788 58.4 47.0488 58.24 47.3154 57.92C47.5888 57.5933 47.7254 57.16 47.7254 56.62V54.04ZM50.3085 58.28H52.1085V52.72H50.3685V52H52.8885V58.28H54.6885V59H50.3085V58.28ZM60.0315 58.16H59.9115C59.7515 58.4933 59.5282 58.74 59.2415 58.9C58.9615 59.06 58.6649 59.14 58.3515 59.14C58.0249 59.14 57.7215 59.0867 57.4415 58.98C57.1615 58.8667 56.9149 58.7033 56.7015 58.49C56.4949 58.27 56.3315 58.0033 56.2115 57.69C56.0915 57.3767 56.0315 57.0133 56.0315 56.6V56.44C56.0315 56.0333 56.0915 55.6733 56.2115 55.36C56.3315 55.0467 56.4949 54.7833 56.7015 54.57C56.9149 54.35 57.1615 54.1833 57.4415 54.07C57.7215 53.9567 58.0182 53.9 58.3315 53.9C58.6715 53.9 58.9782 53.9767 59.2515 54.13C59.5315 54.2767 59.7515 54.5067 59.9115 54.82H60.0315V54.04H60.8115V57.98C60.8115 58.18 60.9015 58.28 61.0815 58.28H61.3315V59H60.8015C60.5749 59 60.3882 58.9267 60.2415 58.78C60.1015 58.6333 60.0315 58.4467 60.0315 58.22V58.16ZM58.4315 58.4C58.6649 58.4 58.8782 58.3567 59.0715 58.27C59.2715 58.1833 59.4415 58.06 59.5815 57.9C59.7215 57.74 59.8315 57.55 59.9115 57.33C59.9915 57.1033 60.0315 56.8533 60.0315 56.58V56.46C60.0315 56.1933 59.9915 55.95 59.9115 55.73C59.8315 55.5033 59.7182 55.31 59.5715 55.15C59.4315 54.99 59.2615 54.8667 59.0615 54.78C58.8682 54.6867 58.6582 54.64 58.4315 54.64C58.1982 54.64 57.9849 54.6833 57.7915 54.77C57.5982 54.8567 57.4282 54.98 57.2815 55.14C57.1415 55.2933 57.0315 55.4833 56.9515 55.71C56.8715 55.93 56.8315 56.1733 56.8315 56.44V56.6C56.8315 57.1667 56.9782 57.61 57.2715 57.93C57.5715 58.2433 57.9582 58.4 58.4315 58.4ZM62.3846 54.04H63.9446V52H64.7246V54.04H66.6446V54.76H64.7246V57.98C64.7246 58.18 64.8146 58.28 64.9946 58.28H66.4046V59H64.7146C64.4879 59 64.3012 58.9267 64.1546 58.78C64.0146 58.6333 63.9446 58.4467 63.9446 58.22V54.76H62.3846V54.04ZM73.3576 56.58C73.3576 56.9933 73.2876 57.36 73.1476 57.68C73.0143 57.9933 72.8343 58.26 72.6076 58.48C72.381 58.6933 72.1143 58.8567 71.8076 58.97C71.5076 59.0833 71.1943 59.14 70.8676 59.14C70.5343 59.14 70.2176 59.0833 69.9176 58.97C69.6176 58.8567 69.3543 58.6933 69.1276 58.48C68.901 58.26 68.7176 57.9933 68.5776 57.68C68.4443 57.36 68.3776 56.9933 68.3776 56.58V56.46C68.3776 56.0533 68.4443 55.6933 68.5776 55.38C68.7176 55.06 68.901 54.79 69.1276 54.57C69.361 54.35 69.6276 54.1833 69.9276 54.07C70.2276 53.9567 70.541 53.9 70.8676 53.9C71.1943 53.9 71.5076 53.9567 71.8076 54.07C72.1076 54.1833 72.371 54.35 72.5976 54.57C72.831 54.79 73.0143 55.06 73.1476 55.38C73.2876 55.6933 73.3576 56.0533 73.3576 56.46V56.58ZM70.8676 58.4C71.1076 58.4 71.3276 58.36 71.5276 58.28C71.7343 58.1933 71.9143 58.07 72.0676 57.91C72.221 57.75 72.341 57.56 72.4276 57.34C72.5143 57.1133 72.5576 56.86 72.5576 56.58V56.46C72.5576 56.1933 72.5143 55.95 72.4276 55.73C72.341 55.5033 72.221 55.31 72.0676 55.15C71.9143 54.99 71.7343 54.8667 71.5276 54.78C71.321 54.6867 71.101 54.64 70.8676 54.64C70.6343 54.64 70.4143 54.6867 70.2076 54.78C70.001 54.8667 69.821 54.99 69.6676 55.15C69.5143 55.31 69.3943 55.5033 69.3076 55.73C69.221 55.95 69.1776 56.1933 69.1776 56.46V56.58C69.1776 56.86 69.221 57.1133 69.3076 57.34C69.3943 57.56 69.5143 57.75 69.6676 57.91C69.821 58.07 69.9976 58.1933 70.1976 58.28C70.4043 58.36 70.6276 58.4 70.8676 58.4ZM74.5207 54.04H76.3207V54.7H76.4407C76.5673 54.4267 76.7473 54.2267 76.9807 54.1C77.214 53.9667 77.4807 53.9 77.7807 53.9C78.2807 53.9 78.684 54.0633 78.9907 54.39C79.2973 54.7167 79.4607 55.1933 79.4807 55.82L78.6607 55.94C78.6607 55.48 78.5507 55.15 78.3307 54.95C78.1107 54.7433 77.8407 54.64 77.5207 54.64C77.314 54.64 77.134 54.68 76.9807 54.76C76.834 54.84 76.7107 54.95 76.6107 55.09C76.5107 55.23 76.4373 55.3933 76.3907 55.58C76.344 55.7667 76.3207 55.9667 76.3207 56.18V58.28H77.5807V59H74.4007V58.28H75.5407V54.76H74.5207V54.04Z" fill="white"/>
</g>
<defs>
<filter id="filter0_d_1312_57" x="5.16406" y="27.5781" width="96.8145" height="32.5615" filterUnits="userSpaceOnUse" color-interpolation-filters="sRGB">
<feFlood flood-opacity="0" result="BackgroundImageFix"/>
<feColorMatrix in="SourceAlpha" type="matrix" values="0 0 0 0 0 0 0 0 0 0 0 0 0 0 0 0 0 0 127 0" result="hardAlpha"/>
<feOffset dx="1" dy="1"/>
<feComposite in2="hardAlpha" operator="out"/>
<feColorMatrix type="matrix" values="0 0 0 0 0 0 0 0 0 0 0 0 0 0 0 0 0 0 0.72 0"/>
<feBlend mode="normal" in2="BackgroundImageFix" result="effect1_dropShadow_1312_57"/>
<feBlend mode="normal" in="SourceGraphic" in2="effect1_dropShadow_1312_57" result="shape"/>
</filter>
</defs>
</svg>
