<svg width="128" height="128" viewBox="0 0 128 128" fill="none" xmlns="http://www.w3.org/2000/svg">
<g clip-path="url(#clip0_904_34)">
<rect width="128" height="128" fill="#242424"/>
<g filter="url(#filter0_d_904_34)">
<path d="M15 64.8258L22.7799 57.0001H62.6628L72 66.0001L62.6628 75.0001L20.7715 74.599L17.8263 69.9085L15 64.8258Z" fill="#BD3939"/>
<path d="M17 21.8258L24 14.0001H65L74 23.0001L64.6628 32.0001L22.7715 31.599L19.8263 26.9085L17 21.8258Z" fill="#BD3939"/>
<path d="M63.8256 71.0001L56 63.2202V23.3373L65 14.0001L74 23.0001L73.5989 65.2286L68.9083 68.1738L63.8256 71.0001Z" fill="#BD3939"/>
<path d="M22.8256 71.0001L15 64.8243L15 23.3373L24 14.0001L33 23.3373L32.5989 65.2286L27.9083 68.1738L22.8256 71.0001Z" fill="#BD3939"/>
</g>
<g filter="url(#filter1_d_904_34)">
<path d="M54.1466 109.714L43 98.7106L51.4993 92.4628L55.6538 89.0001L101.534 89.0322L110.5 98.7106L101.758 109.714H54.1466Z" fill="#962C2C"/>
<path d="M54.1466 71.7141L46 61.0001L51.4993 54.4628L55.6538 51.0001L101.534 51.0322L112.905 60.7106L101.758 71.7141H54.1466Z" fill="#962C2C"/>
<path d="M54 71.5001L55.7806 56.8664L66.2084 58.4585L71.5946 58.9477L104.014 91.4126L105.211 106.297L89.5484 106.196L54 71.5001Z" fill="#962C2C"/>
</g>
</g>
<defs>
<filter id="filter0_d_904_34" x="15" y="14.0001" width="79" height="81" filterUnits="userSpaceOnUse" color-interpolation-filters="sRGB">
<feFlood flood-opacity="0" result="BackgroundImageFix"/>
<feColorMatrix in="SourceAlpha" type="matrix" values="0 0 0 0 0 0 0 0 0 0 0 0 0 0 0 0 0 0 127 0" result="hardAlpha"/>
<feOffset dx="10" dy="10"/>
<feGaussianBlur stdDeviation="5"/>
<feComposite in2="hardAlpha" operator="out"/>
<feColorMatrix type="matrix" values="0 0 0 0 0 0 0 0 0 0 0 0 0 0 0 0 0 0 0.5 0"/>
<feBlend mode="normal" in2="BackgroundImageFix" result="effect1_dropShadow_904_34"/>
<feBlend mode="normal" in="SourceGraphic" in2="effect1_dropShadow_904_34" result="shape"/>
</filter>
<filter id="filter1_d_904_34" x="43" y="51.0001" width="89.905" height="78.714" filterUnits="userSpaceOnUse" color-interpolation-filters="sRGB">
<feFlood flood-opacity="0" result="BackgroundImageFix"/>
<feColorMatrix in="SourceAlpha" type="matrix" values="0 0 0 0 0 0 0 0 0 0 0 0 0 0 0 0 0 0 127 0" result="hardAlpha"/>
<feOffset dx="10" dy="10"/>
<feGaussianBlur stdDeviation="5"/>
<feComposite in2="hardAlpha" operator="out"/>
<feColorMatrix type="matrix" values="0 0 0 0 0 0 0 0 0 0 0 0 0 0 0 0 0 0 0.5 0"/>
<feBlend mode="normal" in2="BackgroundImageFix" result="effect1_dropShadow_904_34"/>
<feBlend mode="normal" in="SourceGraphic" in2="effect1_dropShadow_904_34" result="shape"/>
</filter>
<clipPath id="clip0_904_34">
<rect width="128" height="128" fill="white"/>
</clipPath>
</defs>
</svg>
