<svg width="60" height="45" viewBox="0 0 60 45" fill="none" xmlns="http://www.w3.org/2000/svg">
<path d="M50.7875 3.86266C46.8826 2.12446 42.7826 0.772532 38.4873 0C37.9015 0.965665 37.3158 2.12446 36.9253 3.09013C32.2395 2.51073 27.749 2.51073 23.2584 3.09013C22.6727 2.12446 22.087 0.965665 21.5013 0C17.2059 0.772532 13.1059 1.93133 9.20104 3.86266C1.39138 15.2575 -0.756271 26.4592 0.219936 37.4678C5.49146 41.1373 10.3725 43.4549 15.4488 45C16.6202 43.4549 17.7917 41.7167 18.7679 39.7854C17.0107 39.206 15.2535 38.2403 13.6916 37.2747C14.0821 36.8884 14.4726 36.6953 14.863 36.309C24.8204 40.7511 35.3634 40.7511 45.1255 36.309C45.516 36.6953 45.9064 36.8884 46.2969 37.2747C44.735 38.2403 42.9778 39.0129 41.2206 39.7854C42.1969 41.5236 43.1731 43.2618 44.5397 45C49.4208 43.4549 54.4971 41.1373 59.7686 37.4678C60.94 24.721 57.6209 13.5193 50.7875 3.86266ZM20.1346 30.515C17.2059 30.515 14.6678 27.8112 14.6678 24.5279C14.6678 21.2446 17.0107 18.5408 20.1346 18.5408C23.0632 18.5408 25.6013 21.2446 25.6013 24.5279C25.4061 28.0043 23.0632 30.515 20.1346 30.515ZM39.854 30.515C36.9253 30.515 34.3872 27.8112 34.3872 24.5279C34.3872 21.2446 36.7301 18.5408 39.854 18.5408C42.7826 18.5408 45.3207 21.2446 45.3207 24.5279C45.3207 28.0043 42.9778 30.515 39.854 30.515Z" fill="white"/>
</svg>
