<svg width="128" height="128" viewBox="0 0 128 128" fill="none" xmlns="http://www.w3.org/2000/svg">
<rect width="128" height="128" fill="#242424"/>
<rect x="54" y="58.3179" width="35.9253" height="35.9253" rx="3" transform="rotate(-49.5 54 58.3179)" fill="#DB5252"/>
<path d="M36.3663 32.5803L37.9208 39.23L32.912 47.0886L41.0297 52.5292L48.802 58.1425L44.1386 65.8285L39.8207 73.3417L48.802 79.5595V85.7774" stroke="#5289DB" stroke-width="3"/>
<rect x="19" y="32.3359" width="31.7801" height="4.14523" transform="rotate(-11.5 19 32.3359)" fill="#5289DB"/>
<path d="M31.7603 80.3324L67.3096 85.3285L45.2082 113.617L31.7603 80.3324Z" fill="#DBAC52"/>
<g filter="url(#filter0_d_1325_9)">
<path d="M11.9846 64.9678C12.0206 65.8558 12.2966 66.5698 12.8126 67.1098C13.3286 67.6498 14.0486 67.9198 14.9726 67.9198C15.3926 67.9198 15.7586 67.8718 16.0706 67.7758C16.3826 67.6798 16.6466 67.5478 16.8626 67.3798C17.0906 67.2118 17.2706 67.0198 17.4026 66.8038C17.5466 66.5758 17.6606 66.3358 17.7446 66.0838L19.0766 66.4438C18.8246 67.2718 18.3566 67.9498 17.6726 68.4778C17.0006 68.9938 16.0886 69.2518 14.9366 69.2518C14.3006 69.2518 13.7126 69.1438 13.1726 68.9278C12.6446 68.6998 12.1886 68.3818 11.8046 67.9738C11.4206 67.5658 11.1206 67.0798 10.9046 66.5158C10.6886 65.9518 10.5806 65.3278 10.5806 64.6438V64.2118C10.5806 63.5878 10.6886 63.0058 10.9046 62.4658C11.1326 61.9258 11.4446 61.4638 11.8406 61.0798C12.2366 60.6838 12.6986 60.3778 13.2266 60.1618C13.7666 59.9338 14.3486 59.8198 14.9726 59.8198C15.7046 59.8198 16.3346 59.9578 16.8626 60.2338C17.4026 60.4978 17.8406 60.8278 18.1766 61.2238C18.5246 61.6198 18.7766 62.0518 18.9326 62.5198C19.1006 62.9878 19.1846 63.4198 19.1846 63.8158V64.9678H11.9846ZM14.9726 61.1518C14.5766 61.1518 14.2046 61.2178 13.8566 61.3498C13.5206 61.4698 13.2206 61.6438 12.9566 61.8718C12.7046 62.0998 12.4946 62.3698 12.3266 62.6818C12.1706 62.9818 12.0686 63.3118 12.0206 63.6718H17.7806C17.7566 63.2878 17.6606 62.9398 17.4926 62.6278C17.3366 62.3158 17.1266 62.0518 16.8626 61.8358C16.6106 61.6198 16.3166 61.4518 15.9806 61.3318C15.6566 61.2118 15.3206 61.1518 14.9726 61.1518ZM21.6741 60.0718H24.4821V56.3998H25.8861V60.0718H29.3421V61.3678H25.8861V67.1638C25.8861 67.5238 26.0481 67.7038 26.3721 67.7038H28.9101V68.9998H25.8681C25.4601 68.9998 25.1241 68.8678 24.8601 68.6038C24.6081 68.3398 24.4821 68.0038 24.4821 67.5958V61.3678H21.6741V60.0718ZM34.4055 68.9998H33.0015V56.3998H34.4055V61.6918H34.6215C34.8975 61.1158 35.2815 60.6598 35.7735 60.3238C36.2775 59.9878 36.8895 59.8198 37.6095 59.8198C38.5815 59.8198 39.3675 60.1438 39.9675 60.7918C40.5795 61.4278 40.8855 62.3878 40.8855 63.6718V68.9998H39.4815V63.9598C39.4815 63.0238 39.2715 62.3218 38.8515 61.8538C38.4315 61.3858 37.8615 61.1518 37.1415 61.1518C36.2895 61.1518 35.6175 61.4458 35.1255 62.0338C34.6455 62.6098 34.4055 63.3838 34.4055 64.3558V68.9998ZM45.049 64.9678C45.085 65.8558 45.361 66.5698 45.877 67.1098C46.393 67.6498 47.113 67.9198 48.037 67.9198C48.457 67.9198 48.823 67.8718 49.135 67.7758C49.447 67.6798 49.711 67.5478 49.927 67.3798C50.155 67.2118 50.335 67.0198 50.467 66.8038C50.611 66.5758 50.725 66.3358 50.809 66.0838L52.141 66.4438C51.889 67.2718 51.421 67.9498 50.737 68.4778C50.065 68.9938 49.153 69.2518 48.001 69.2518C47.365 69.2518 46.777 69.1438 46.237 68.9278C45.709 68.6998 45.253 68.3818 44.869 67.9738C44.485 67.5658 44.185 67.0798 43.969 66.5158C43.753 65.9518 43.645 65.3278 43.645 64.6438V64.2118C43.645 63.5878 43.753 63.0058 43.969 62.4658C44.197 61.9258 44.509 61.4638 44.905 61.0798C45.301 60.6838 45.763 60.3778 46.291 60.1618C46.831 59.9338 47.413 59.8198 48.037 59.8198C48.769 59.8198 49.399 59.9578 49.927 60.2338C50.467 60.4978 50.905 60.8278 51.241 61.2238C51.589 61.6198 51.841 62.0518 51.997 62.5198C52.165 62.9878 52.249 63.4198 52.249 63.8158V64.9678H45.049ZM48.037 61.1518C47.641 61.1518 47.269 61.2178 46.921 61.3498C46.585 61.4698 46.285 61.6438 46.021 61.8718C45.769 62.0998 45.559 62.3698 45.391 62.6818C45.235 62.9818 45.133 63.3118 45.085 63.6718H50.845C50.821 63.2878 50.725 62.9398 50.557 62.6278C50.401 62.3158 50.191 62.0518 49.927 61.8358C49.675 61.6198 49.381 61.4518 49.045 61.3318C48.721 61.2118 48.385 61.1518 48.037 61.1518ZM54.5405 60.0718H57.7805V61.2598H57.9965C58.2245 60.7678 58.5485 60.4078 58.9685 60.1798C59.3885 59.9398 59.8685 59.8198 60.4085 59.8198C61.3085 59.8198 62.0345 60.1138 62.5865 60.7018C63.1385 61.2898 63.4325 62.1478 63.4685 63.2758L61.9925 63.4918C61.9925 62.6638 61.7945 62.0698 61.3985 61.7098C61.0025 61.3378 60.5165 61.1518 59.9405 61.1518C59.5685 61.1518 59.2445 61.2238 58.9685 61.3678C58.7045 61.5118 58.4825 61.7098 58.3025 61.9618C58.1225 62.2138 57.9905 62.5078 57.9065 62.8438C57.8225 63.1798 57.7805 63.5398 57.7805 63.9238V67.7038H60.0485V68.9998H54.3245V67.7038H56.3765V61.3678H54.5405V60.0718Z" fill="white"/>
<path d="M72.978 60.0358C72.978 59.6278 72.894 59.2678 72.726 58.9558C72.57 58.6438 72.354 58.3858 72.078 58.1818C71.802 57.9778 71.484 57.8218 71.124 57.7138C70.764 57.6058 70.386 57.5518 69.99 57.5518C69.642 57.5518 69.312 57.5998 69 57.6958C68.688 57.7798 68.406 57.9058 68.154 58.0738C67.914 58.2418 67.722 58.4518 67.578 58.7038C67.434 58.9438 67.362 59.2258 67.362 59.5498V59.6578C67.362 60.0058 67.434 60.3058 67.578 60.5578C67.722 60.7978 67.932 61.0078 68.208 61.1878C68.496 61.3558 68.85 61.4998 69.27 61.6198C69.69 61.7278 70.182 61.8238 70.746 61.9078C72.066 62.1118 73.038 62.5018 73.662 63.0778C74.286 63.6418 74.598 64.4038 74.598 65.3638V65.5798C74.598 66.1198 74.502 66.6178 74.31 67.0738C74.13 67.5178 73.854 67.9018 73.482 68.2258C73.122 68.5498 72.672 68.8018 72.132 68.9818C71.592 69.1618 70.968 69.2518 70.26 69.2518C69.456 69.2518 68.742 69.1378 68.118 68.9098C67.506 68.6698 66.99 68.3458 66.57 67.9378C66.162 67.5178 65.85 67.0318 65.634 66.4798C65.418 65.9158 65.31 65.3038 65.31 64.6438V64.1038H66.822V64.5358C66.822 65.6398 67.122 66.4678 67.722 67.0198C68.334 67.5718 69.18 67.8478 70.26 67.8478C71.196 67.8478 71.898 67.6438 72.366 67.2358C72.846 66.8158 73.086 66.2638 73.086 65.5798V65.4718C73.086 64.8118 72.84 64.3078 72.348 63.9598C71.868 63.6118 71.082 63.3598 69.99 63.2038C69.354 63.1198 68.778 62.9938 68.262 62.8258C67.758 62.6458 67.326 62.4178 66.966 62.1418C66.606 61.8538 66.33 61.5118 66.138 61.1158C65.946 60.7198 65.85 60.2518 65.85 59.7118V59.4958C65.85 59.0038 65.952 58.5538 66.156 58.1458C66.36 57.7378 66.642 57.3838 67.002 57.0838C67.374 56.7838 67.812 56.5558 68.316 56.3998C68.832 56.2318 69.396 56.1478 70.008 56.1478C70.716 56.1478 71.346 56.2498 71.898 56.4538C72.462 56.6578 72.936 56.9338 73.32 57.2818C73.704 57.6178 73.992 58.0198 74.184 58.4878C74.388 58.9438 74.49 59.4238 74.49 59.9278V60.6838H72.978V60.0358ZM78.1675 72.5998H76.7635V60.0718H78.1675V61.4758H78.3835C78.6955 60.9358 79.1275 60.5278 79.6795 60.2518C80.2315 59.9638 80.8315 59.8198 81.4795 59.8198C82.0315 59.8198 82.5535 59.9218 83.0455 60.1258C83.5375 60.3298 83.9695 60.6238 84.3415 61.0078C84.7255 61.3918 85.0255 61.8658 85.2415 62.4298C85.4695 62.9938 85.5835 63.6358 85.5835 64.3558V64.7158C85.5835 65.4478 85.4755 66.0958 85.2595 66.6598C85.0435 67.2238 84.7435 67.6978 84.3595 68.0818C83.9875 68.4658 83.5495 68.7598 83.0455 68.9638C82.5415 69.1558 82.0075 69.2518 81.4435 69.2518C81.1555 69.2518 80.8615 69.2158 80.5615 69.1438C80.2615 69.0838 79.9735 68.9878 79.6975 68.8558C79.4335 68.7118 79.1875 68.5438 78.9595 68.3518C78.7315 68.1478 78.5395 67.9078 78.3835 67.6318H78.1675V72.5998ZM81.1555 67.9198C81.5875 67.9198 81.9835 67.8478 82.3435 67.7038C82.7035 67.5478 83.0155 67.3318 83.2795 67.0558C83.5555 66.7798 83.7655 66.4438 83.9095 66.0478C84.0655 65.6518 84.1435 65.2078 84.1435 64.7158V64.3558C84.1435 63.8758 84.0655 63.4438 83.9095 63.0598C83.7655 62.6638 83.5555 62.3278 83.2795 62.0518C83.0155 61.7638 82.6975 61.5418 82.3255 61.3858C81.9655 61.2298 81.5755 61.1518 81.1555 61.1518C80.7355 61.1518 80.3455 61.2358 79.9855 61.4038C79.6255 61.5598 79.3075 61.7818 79.0315 62.0698C78.7675 62.3578 78.5575 62.7058 78.4015 63.1138C78.2455 63.5098 78.1675 63.9478 78.1675 64.4278V64.6438C78.1675 65.1358 78.2455 65.5858 78.4015 65.9938C78.5575 66.3898 78.7675 66.7318 79.0315 67.0198C79.3075 67.3078 79.6255 67.5298 79.9855 67.6858C80.3455 67.8418 80.7355 67.9198 81.1555 67.9198ZM94.589 67.4878H94.373C94.085 68.0878 93.683 68.5318 93.167 68.8198C92.663 69.1078 92.129 69.2518 91.565 69.2518C90.977 69.2518 90.431 69.1558 89.927 68.9638C89.423 68.7598 88.979 68.4658 88.595 68.0818C88.223 67.6858 87.929 67.2058 87.713 66.6418C87.497 66.0778 87.389 65.4238 87.389 64.6798V64.3918C87.389 63.6598 87.497 63.0118 87.713 62.4478C87.929 61.8838 88.223 61.4098 88.595 61.0258C88.979 60.6298 89.423 60.3298 89.927 60.1258C90.431 59.9218 90.965 59.8198 91.529 59.8198C92.141 59.8198 92.693 59.9578 93.185 60.2338C93.689 60.4978 94.085 60.9118 94.373 61.4758H94.589V60.0718H95.993V67.1638C95.993 67.5238 96.155 67.7038 96.479 67.7038H96.929V68.9998H95.975C95.567 68.9998 95.231 68.8678 94.967 68.6038C94.715 68.3398 94.589 68.0038 94.589 67.5958V67.4878ZM91.709 67.9198C92.129 67.9198 92.513 67.8418 92.861 67.6858C93.221 67.5298 93.527 67.3078 93.779 67.0198C94.031 66.7318 94.229 66.3898 94.373 65.9938C94.517 65.5858 94.589 65.1358 94.589 64.6438V64.4278C94.589 63.9478 94.517 63.5098 94.373 63.1138C94.229 62.7058 94.025 62.3578 93.761 62.0698C93.509 61.7818 93.203 61.5598 92.843 61.4038C92.495 61.2358 92.117 61.1518 91.709 61.1518C91.289 61.1518 90.905 61.2298 90.557 61.3858C90.209 61.5418 89.903 61.7638 89.639 62.0518C89.387 62.3278 89.189 62.6698 89.045 63.0778C88.901 63.4738 88.829 63.9118 88.829 64.3918V64.6798C88.829 65.6998 89.093 66.4978 89.621 67.0738C90.161 67.6378 90.857 67.9198 91.709 67.9198ZM107.482 65.8318C107.386 66.3238 107.218 66.7798 106.978 67.1998C106.75 67.6198 106.456 67.9858 106.096 68.2978C105.736 68.5978 105.316 68.8318 104.836 68.9998C104.356 69.1678 103.822 69.2518 103.234 69.2518C102.61 69.2518 102.016 69.1498 101.452 68.9458C100.9 68.7418 100.414 68.4478 99.9945 68.0638C99.5745 67.6678 99.2385 67.1878 98.9865 66.6238C98.7465 66.0598 98.6265 65.4118 98.6265 64.6798V64.4638C98.6265 63.7438 98.7465 63.0958 98.9865 62.5198C99.2385 61.9438 99.5745 61.4578 99.9945 61.0618C100.414 60.6658 100.9 60.3598 101.452 60.1438C102.016 59.9278 102.61 59.8198 103.234 59.8198C103.798 59.8198 104.32 59.9038 104.8 60.0718C105.28 60.2398 105.7 60.4798 106.06 60.7918C106.432 61.0918 106.732 61.4518 106.96 61.8718C107.2 62.2918 107.362 62.7478 107.446 63.2398L106.042 63.5638C106.006 63.2518 105.916 62.9518 105.772 62.6638C105.64 62.3638 105.454 62.1058 105.214 61.8898C104.986 61.6618 104.704 61.4818 104.368 61.3498C104.032 61.2178 103.642 61.1518 103.198 61.1518C102.766 61.1518 102.358 61.2358 101.974 61.4038C101.602 61.5598 101.272 61.7878 100.984 62.0878C100.696 62.3758 100.468 62.7238 100.3 63.1318C100.144 63.5398 100.066 63.9838 100.066 64.4638V64.6798C100.066 65.1838 100.144 65.6398 100.3 66.0478C100.468 66.4438 100.696 66.7798 100.984 67.0558C101.272 67.3318 101.608 67.5478 101.992 67.7038C102.376 67.8478 102.79 67.9198 103.234 67.9198C103.678 67.9198 104.062 67.8538 104.386 67.7218C104.722 67.5778 105.004 67.3978 105.232 67.1818C105.472 66.9538 105.658 66.6958 105.79 66.4078C105.934 66.1198 106.03 65.8198 106.078 65.5078L107.482 65.8318ZM111.178 64.9678C111.214 65.8558 111.49 66.5698 112.006 67.1098C112.522 67.6498 113.242 67.9198 114.166 67.9198C114.586 67.9198 114.952 67.8718 115.264 67.7758C115.576 67.6798 115.84 67.5478 116.056 67.3798C116.284 67.2118 116.464 67.0198 116.596 66.8038C116.74 66.5758 116.854 66.3358 116.938 66.0838L118.27 66.4438C118.018 67.2718 117.55 67.9498 116.866 68.4778C116.194 68.9938 115.282 69.2518 114.13 69.2518C113.494 69.2518 112.906 69.1438 112.366 68.9278C111.838 68.6998 111.382 68.3818 110.998 67.9738C110.614 67.5658 110.314 67.0798 110.098 66.5158C109.882 65.9518 109.774 65.3278 109.774 64.6438V64.2118C109.774 63.5878 109.882 63.0058 110.098 62.4658C110.326 61.9258 110.638 61.4638 111.034 61.0798C111.43 60.6838 111.892 60.3778 112.42 60.1618C112.96 59.9338 113.542 59.8198 114.166 59.8198C114.898 59.8198 115.528 59.9578 116.056 60.2338C116.596 60.4978 117.034 60.8278 117.37 61.2238C117.718 61.6198 117.97 62.0518 118.126 62.5198C118.294 62.9878 118.378 63.4198 118.378 63.8158V64.9678H111.178ZM114.166 61.1518C113.77 61.1518 113.398 61.2178 113.05 61.3498C112.714 61.4698 112.414 61.6438 112.15 61.8718C111.898 62.0998 111.688 62.3698 111.52 62.6818C111.364 62.9818 111.262 63.3118 111.214 63.6718H116.974C116.95 63.2878 116.854 62.9398 116.686 62.6278C116.53 62.3158 116.32 62.0518 116.056 61.8358C115.804 61.6198 115.51 61.4518 115.174 61.3318C114.85 61.2118 114.514 61.1518 114.166 61.1518Z" fill="url(#paint0_linear_1325_9)"/>
</g>
<defs>
<filter id="filter0_d_1325_9" x="10.5806" y="56.1477" width="109.297" height="17.952" filterUnits="userSpaceOnUse" color-interpolation-filters="sRGB">
<feFlood flood-opacity="0" result="BackgroundImageFix"/>
<feColorMatrix in="SourceAlpha" type="matrix" values="0 0 0 0 0 0 0 0 0 0 0 0 0 0 0 0 0 0 127 0" result="hardAlpha"/>
<feOffset dx="1" dy="1"/>
<feGaussianBlur stdDeviation="0.25"/>
<feComposite in2="hardAlpha" operator="out"/>
<feColorMatrix type="matrix" values="0 0 0 0 0 0 0 0 0 0 0 0 0 0 0 0 0 0 0.5 0"/>
<feBlend mode="normal" in2="BackgroundImageFix" result="effect1_dropShadow_1325_9"/>
<feBlend mode="normal" in="SourceGraphic" in2="effect1_dropShadow_1325_9" result="shape"/>
</filter>
<linearGradient id="paint0_linear_1325_9" x1="63.4561" y1="57.5712" x2="124" y2="57.5712" gradientUnits="userSpaceOnUse">
<stop stop-color="#693267"/>
<stop offset="1" stop-color="#D01EC9"/>
</linearGradient>
</defs>
</svg>
