<svg width="432" height="432" viewBox="0 0 432 432" fill="none" xmlns="http://www.w3.org/2000/svg">
<rect width="432" height="432" rx="27" fill="#101010"/>
<g filter="url(#filter0_d_410_262)">
<path d="M121 118L156 83H305.5L340.5 118L305.5 153H156L121 118Z" fill="#5C6AED"/>
<path d="M121 118L156 83H305.5L340.5 118L305.5 153H156L121 118Z" stroke="#5C6AED"/>
</g>
<g filter="url(#filter1_d_410_262)">
<path d="M92 240L127 205H276.5L311.5 240L276.5 275H127L92 240Z" fill="#3946BD"/>
<path d="M92 240L127 205H276.5L311.5 240L276.5 275H127L92 240Z" stroke="#3946BD"/>
</g>
<g filter="url(#filter2_d_410_262)">
<path d="M127 349.5L92 314.5L92 165L127 130L162 165V314.5L127 349.5Z" fill="#3D4FEA"/>
<path d="M127 349.5L92 314.5L92 165L127 130L162 165V314.5L127 349.5Z" stroke="#3D4FEA"/>
</g>
<defs>
<filter id="filter0_d_410_262" x="116.293" y="82.5" width="228.914" height="79" filterUnits="userSpaceOnUse" color-interpolation-filters="sRGB">
<feFlood flood-opacity="0" result="BackgroundImageFix"/>
<feColorMatrix in="SourceAlpha" type="matrix" values="0 0 0 0 0 0 0 0 0 0 0 0 0 0 0 0 0 0 127 0" result="hardAlpha"/>
<feOffset dy="4"/>
<feGaussianBlur stdDeviation="2"/>
<feComposite in2="hardAlpha" operator="out"/>
<feColorMatrix type="matrix" values="0 0 0 0 0 0 0 0 0 0 0 0 0 0 0 0 0 0 0.25 0"/>
<feBlend mode="normal" in2="BackgroundImageFix" result="effect1_dropShadow_410_262"/>
<feBlend mode="normal" in="SourceGraphic" in2="effect1_dropShadow_410_262" result="shape"/>
</filter>
<filter id="filter1_d_410_262" x="87.293" y="204.5" width="228.914" height="79" filterUnits="userSpaceOnUse" color-interpolation-filters="sRGB">
<feFlood flood-opacity="0" result="BackgroundImageFix"/>
<feColorMatrix in="SourceAlpha" type="matrix" values="0 0 0 0 0 0 0 0 0 0 0 0 0 0 0 0 0 0 127 0" result="hardAlpha"/>
<feOffset dy="4"/>
<feGaussianBlur stdDeviation="2"/>
<feComposite in2="hardAlpha" operator="out"/>
<feColorMatrix type="matrix" values="0 0 0 0 0 0 0 0 0 0 0 0 0 0 0 0 0 0 0.25 0"/>
<feBlend mode="normal" in2="BackgroundImageFix" result="effect1_dropShadow_410_262"/>
<feBlend mode="normal" in="SourceGraphic" in2="effect1_dropShadow_410_262" result="shape"/>
</filter>
<filter id="filter2_d_410_262" x="87.5" y="129.293" width="79" height="228.914" filterUnits="userSpaceOnUse" color-interpolation-filters="sRGB">
<feFlood flood-opacity="0" result="BackgroundImageFix"/>
<feColorMatrix in="SourceAlpha" type="matrix" values="0 0 0 0 0 0 0 0 0 0 0 0 0 0 0 0 0 0 127 0" result="hardAlpha"/>
<feOffset dy="4"/>
<feGaussianBlur stdDeviation="2"/>
<feComposite in2="hardAlpha" operator="out"/>
<feColorMatrix type="matrix" values="0 0 0 0 0 0 0 0 0 0 0 0 0 0 0 0 0 0 0.25 0"/>
<feBlend mode="normal" in2="BackgroundImageFix" result="effect1_dropShadow_410_262"/>
<feBlend mode="normal" in="SourceGraphic" in2="effect1_dropShadow_410_262" result="shape"/>
</filter>
</defs>
</svg>
