<svg width="128" height="128" viewBox="0 0 128 128" fill="none" xmlns="http://www.w3.org/2000/svg">
<rect width="128" height="128" fill="#2D2D39"/>
<path d="M90.7195 90.0933C90.9425 91.5722 89.5226 92.7637 88.1048 92.2873L77.693 88.7886C75.9204 88.193 75.8619 85.7073 77.6046 85.029L81.4291 83.5405C81.8178 83.3892 82.1494 83.1202 82.3777 82.7711L85.3895 78.1643C86.3948 76.6268 88.7673 77.1441 89.0411 78.9606L90.7195 90.0933Z" fill="#6AB7CD"/>
<path d="M94.5113 64.4647C94.5113 79.8932 80.6321 92.4004 63.5113 92.4004C46.3904 92.4004 32.5113 79.8932 32.5113 64.4647C32.5113 49.0363 46.3904 36.5291 63.5113 36.5291C80.6321 36.5291 94.5113 49.0363 94.5113 64.4647ZM36.9523 64.4647C36.9523 77.6829 48.8431 88.3984 63.5113 88.3984C78.1794 88.3984 90.0702 77.6829 90.0702 64.4647C90.0702 51.2465 78.1794 40.5311 63.5113 40.5311C48.8431 40.5311 36.9523 51.2465 36.9523 64.4647Z" fill="#6AB7CD"/>
<path d="M59.5113 64.4648C59.5113 72.4279 52.3478 78.8832 43.5113 78.8832C34.6747 78.8832 34.0113 72.4279 34.0113 64.4648C34.0113 56.5017 34.6747 50.0464 43.5113 50.0464C52.3478 50.0464 59.5113 56.5017 59.5113 64.4648Z" fill="#6AB7CD"/>
<rect x="72.5113" y="54.552" width="20" height="3.6046" rx="1.8023" fill="#6AB7CD"/>
<rect x="72.5113" y="70.7727" width="20" height="3.6046" rx="1.8023" fill="#6AB7CD"/>
<rect x="64.5113" y="59.959" width="28" height="3.6046" rx="1.8023" fill="#6AB7CD"/>
<rect x="64.5113" y="65.366" width="28" height="3.6046" rx="1.8023" fill="#6AB7CD"/>
</svg>
