<svg width="432" height="432" viewBox="0 0 432 432" fill="none" xmlns="http://www.w3.org/2000/svg">
<rect width="432" height="432" rx="27" fill="#133C55"/>
<path d="M325.717 239.556C349.561 263.399 349.561 302.057 325.717 325.901C301.874 349.744 263.215 349.744 239.372 325.901C227.889 314.418 223.163 300.858 221.575 281.786C220.491 268.765 220.907 254.778 221.402 238.166C221.555 233.041 221.715 227.667 221.84 221.994C226.376 221.88 230.766 221.744 235.032 221.611C251.276 221.106 265.707 220.657 279.443 221.762C299.622 223.386 314.432 228.271 325.717 239.556Z" stroke="#84D2F6" stroke-width="30"/>
<path d="M106.386 191.731C82.5423 167.887 82.5423 129.229 106.386 105.386C130.229 81.5422 168.888 81.5422 192.731 105.386C204.214 116.869 208.94 130.428 210.528 149.501C211.612 162.522 211.196 176.509 210.701 193.121C210.548 198.245 210.388 203.62 210.263 209.293C205.727 209.406 201.337 209.543 197.071 209.676C180.827 210.181 166.396 210.63 152.66 209.524C132.481 207.9 117.671 203.016 106.386 191.731Z" stroke="#386FA4" stroke-width="30"/>
</svg>
