<svg width="111" height="111" viewBox="0 0 111 111" fill="none" xmlns="http://www.w3.org/2000/svg">
<g filter="url(#filter0_d_3_33)">
<rect x="4" width="103" height="103" rx="16" fill="#141414"/>
<path d="M27 34C27 30.134 30.134 27 34 27H84V70C84 73.866 80.866 77 77 77H27V34Z" fill="#C4C4C4"/>
<circle cx="55" cy="52" r="19" fill="#141414"/>
<path d="M64.6553 59.1257C62.8386 61.5872 60.1504 63.262 57.1402 63.8076C54.13 64.3532 51.025 63.7285 48.46 62.0612C45.895 60.3939 44.0636 57.8099 43.3403 54.8374C42.6169 51.8648 43.0562 48.7283 44.5683 46.0688L46.0279 46.8987C44.7274 49.186 44.3495 51.8837 44.9717 54.4404C45.5938 56.997 47.169 59.2194 49.3751 60.6535C51.5812 62.0875 54.2517 62.6248 56.8407 62.1555C59.4298 61.6862 61.7418 60.2458 63.3043 58.1287L64.6553 59.1257Z" fill="#C4C4C4"/>
</g>
<defs>
<filter id="filter0_d_3_33" x="0" y="0" width="111" height="111">
<feFlood flood-opacity="0" result="BackgroundImageFix"/>
<feColorMatrix in="SourceAlpha" type="matrix" values="0 0 0 0 0 0 0 0 0 0 0 0 0 0 0 0 0 0 127 0" result="hardAlpha"/>
<feOffset dy="4"/>
<feGaussianBlur stdDeviation="2"/>
<feComposite in2="hardAlpha" operator="out"/>
<feColorMatrix type="matrix" values="0 0 0 0 0 0 0 0 0 0 0 0 0 0 0 0 0 0 0.25 0"/>
<feBlend mode="normal" in2="BackgroundImageFix" result="effect1_dropShadow_3_33"/>
<feBlend mode="normal" in="SourceGraphic" in2="effect1_dropShadow_3_33" result="shape"/>
</filter>
</defs>
</svg>
