<svg width="60" height="60" viewBox="0 0 60 60" fill="none" xmlns="http://www.w3.org/2000/svg">
<path d="M60 51.6667C60 56.27 56.27 60 51.6667 60H8.33333C3.73167 60 0 56.27 0 51.6667V8.33333C0 3.73 3.73167 0 8.33333 0H51.6667C56.27 0 60 3.73 60 8.33333V51.6667Z" fill="#0270ad"/>
<path opacity="0.05" d="M40.1538 52V34.9094C40.1538 32.0511 38.7678 30.3435 36.4443 30.3435C35.0651 30.3435 34.0514 31.1203 33.4337 32.6518C33.4049 32.7602 33.3643 33.2018 33.3812 34.5371L33.3846 52H21.5385V19.8462H33.3846V21.6417C35.1142 20.4486 37.2346 19.8462 39.7105 19.8462C47.4054 19.8462 51.9983 25.0805 51.9983 33.8483L52 52H40.1538ZM8 52V19.8462H13.8503C10.4606 19.8462 8 17.3551 8 13.9214C8 10.4911 10.5012 8 13.9468 8C17.3517 8 19.7768 10.4217 19.8462 13.8875C19.8462 17.3466 17.3432 19.8462 13.8977 19.8462H19.8462V52H8Z" fill="black"/>
<path opacity="0.07" d="M40.92 51V34.8737C40.92 31.559 39.1879 29.501 36.3974 29.501C34.2218 29.501 33.1466 31.0332 32.6292 32.3184C32.4914 32.6527 32.5099 33.9799 32.5166 34.5461L32.52 51H22.44V20.76H32.52V23.5118C33.8556 22.1292 36.006 20.76 39.6398 20.76C46.7513 20.76 50.9983 25.6421 50.9983 33.8203L51 51H40.92ZM9 51V20.76H19.08V51H9ZM13.9678 19.08C11.0899 19.08 9 16.9598 9 14.0383C9 11.1185 11.1302 9 14.0635 9C16.9598 9 19.0212 11.0647 19.08 14.0215C19.08 16.9598 16.9498 19.08 14.0148 19.08H13.9678Z" fill="black"/>
<path d="M10 21.6667H18.3333V50H10V21.6667ZM14.1417 18.3333H14.095C11.6083 18.3333 10 16.48 10 14.165C10 11.8 11.6583 10 14.19 10C16.725 10 18.2867 11.8 18.3333 14.165C18.3333 16.4783 16.725 18.3333 14.1417 18.3333ZM50 50H41.6667V34.835C41.6667 31.1717 39.625 28.6717 36.3467 28.6717C33.845 28.6717 32.4917 30.3583 31.835 31.9883C31.595 32.5717 31.6667 34.185 31.6667 35V50H23.3333V21.6667H31.6667V26.0267C32.8683 24.1667 34.75 21.6667 39.5633 21.6667C45.5267 21.6667 49.9983 25.4167 49.9983 33.79L50 50Z" fill="#aaaaaa"/>
</svg>
