<svg width="154" height="153" viewBox="0 0 154 153" fill="none" xmlns="http://www.w3.org/2000/svg">
<path d="M104.82 39.7691C76.6955 45.3862 45.5675 71.6023 32.8543 92.6633C30.8117 96.0457 26.4137 97.1348 23.0333 95.0913C19.6509 93.0468 18.5617 88.6518 20.6039 85.2669C35.1979 61.0891 69.6401 32.2087 102.013 25.7362C105.891 24.961 109.657 27.4787 110.431 31.3493C111.207 35.2259 108.691 39.0002 104.819 39.7695L104.82 39.7691ZM118.733 56.4282C119.326 59.6723 117.187 62.7828 113.95 63.3778C90.2177 67.7425 64.4707 85.9984 51.3361 107.76C49.6297 110.578 45.9645 111.486 43.1457 109.787C41.7935 108.968 40.8214 107.646 40.4425 106.111C40.0636 104.576 40.3089 102.953 41.1245 101.599C56.13 76.7413 84.5311 56.6636 111.788 51.6477C115.027 51.0548 118.14 53.1934 118.733 56.4282ZM125.715 78.172C125.831 78.7878 125.824 79.4203 125.695 80.0335C125.567 80.6467 125.318 81.2284 124.964 81.7454C124.61 82.2624 124.158 82.7045 123.633 83.0465C123.108 83.3884 122.521 83.6234 121.905 83.738C101.208 87.5992 82.7456 100.886 67.0266 123.225C66.6665 123.737 66.2091 124.173 65.6805 124.508C65.1519 124.843 64.5624 125.071 63.9458 125.178C63.3291 125.285 62.6974 125.27 62.0866 125.133C61.4759 124.996 60.8981 124.741 60.3863 124.38C59.8736 124.021 59.4369 123.563 59.1013 123.035C58.7656 122.506 58.5375 121.916 58.4301 121.299C58.3227 120.682 58.3381 120.05 58.4753 119.439C58.6126 118.828 58.8691 118.25 59.23 117.738C76.4287 93.2893 96.9226 78.6938 120.152 74.358C120.768 74.243 121.4 74.2504 122.013 74.3798C122.626 74.5092 123.207 74.7581 123.724 75.1123C124.24 75.4664 124.682 75.9189 125.024 76.4438C125.366 76.9687 125.601 77.5558 125.715 78.1716L125.715 78.172ZM25.8105 19.6503C-5.58562 47.9196 -8.12159 96.2903 20.1486 127.687C48.4215 159.088 96.7913 161.621 128.188 133.351C159.586 105.08 162.123 56.7107 133.85 25.3105C105.58 -6.08619 57.2098 -8.62166 25.8111 19.6499" fill="#1ED660"/>
</svg>
