<svg width="64" height="64" viewBox="0 0 64 64" fill="none" xmlns="http://www.w3.org/2000/svg">
<g clip-path="url(#clip0_1318_6)">
<path d="M32 0C14.3307 0 0 14.6902 0 32.809C0 47.3051 9.168 59.603 21.8853 63.942C23.4827 64.2454 24 63.2284 24 62.3644V56.2564C15.0987 58.2414 13.2453 52.385 13.2453 52.385C11.7893 48.5929 9.69067 47.5839 9.69067 47.5839C6.78667 45.5471 9.912 45.5908 9.912 45.5908C13.1253 45.8205 14.816 48.9729 14.816 48.9729C17.6693 53.9872 22.3013 52.5381 24.128 51.6988C24.4133 49.5798 25.2427 48.1308 26.16 47.3133C19.0533 46.4794 11.5813 43.666 11.5813 31.0974C11.5813 27.5131 12.832 24.5876 14.8773 22.291C14.5467 21.4625 13.4507 18.1243 15.1893 13.6076C15.1893 13.6076 17.8773 12.7271 23.992 16.9705C26.544 16.2432 29.28 15.8796 32 15.8659C34.72 15.8796 37.4587 16.2432 40.016 16.9705C46.1253 12.7271 48.808 13.6076 48.808 13.6076C50.5493 18.1269 49.4533 21.4653 49.1227 22.291C51.176 24.5876 52.416 27.5158 52.416 31.0974C52.416 43.6988 44.9307 46.4739 37.8053 47.286C38.952 48.303 40 50.2989 40 53.3611V62.3644C40 63.2366 40.512 64.2619 42.136 63.9392C54.8427 59.5948 64 47.2996 64 32.809C64 14.6902 49.672 0 32 0Z" fill="#8C8C8C"/>
</g>
<defs>
<clipPath id="clip0_1318_6">
<rect width="64" height="64" fill="white"/>
</clipPath>
</defs>
</svg>
