<svg width="64" height="64" viewBox="0 0 64 64" fill="none" xmlns="http://www.w3.org/2000/svg">
<g clip-path="url(#clip0_1318_10)">
<path d="M64 55.1111C64 60.0213 60.0213 64 55.1111 64H8.88889C3.98045 64 0 60.0213 0 55.1111V8.88889C0 3.97867 3.98045 0 8.88889 0H55.1111C60.0213 0 64 3.97867 64 8.88889V55.1111Z" fill="#0270AD"/>
<path opacity="0.05" d="M42.8306 55.4665V37.2366C42.8306 34.1877 41.3522 32.3663 38.8738 32.3663C37.4026 32.3663 36.3214 33.1949 35.6625 34.8285C35.6318 34.9441 35.5885 35.4151 35.6065 36.8394L35.6101 55.4665H22.9743V21.1692H35.6101V23.0844C37.455 21.8117 39.7168 21.1692 42.3577 21.1692C50.5656 21.1692 55.4647 26.7524 55.4647 36.1047L55.4665 55.4665H42.8306ZM8.5332 55.4665V21.1692H14.7735C11.1578 21.1692 8.5332 18.512 8.5332 14.8494C8.5332 11.1904 11.2012 8.5332 14.8765 8.5332C18.5084 8.5332 21.0951 11.1163 21.1692 14.8132C21.1692 18.5029 18.4993 21.1692 14.8241 21.1692H21.1692V55.4665H8.5332Z" fill="black"/>
<path opacity="0.07" d="M43.6476 54.3996V37.1982C43.6476 33.6625 41.8 31.4673 38.8235 31.4673C36.5029 31.4673 35.356 33.1017 34.8041 34.4726C34.6571 34.8292 34.6768 36.2448 34.684 36.8488L34.6876 54.3996H23.9356V22.1436H34.6876V25.0789C36.1122 23.6041 38.406 22.1436 42.2821 22.1436C49.8677 22.1436 54.3978 27.3512 54.3978 36.0746L54.3996 54.3996H43.6476ZM9.59961 54.3996V22.1436H20.3516V54.3996H9.59961ZM14.8986 20.3516C11.8288 20.3516 9.59961 18.0901 9.59961 14.9738C9.59961 11.8593 11.8718 9.59961 15.0007 9.59961C18.0901 9.59961 20.2889 11.802 20.3516 14.9559C20.3516 18.0901 18.0794 20.3516 14.9487 20.3516H14.8986Z" fill="black"/>
<path d="M10.667 23.1115H19.5558V53.3337H10.667V23.1115ZM15.0848 19.5558H15.035C12.3825 19.5558 10.667 17.579 10.667 15.1097C10.667 12.587 12.4358 10.667 15.1363 10.667C17.8403 10.667 19.5061 12.587 19.5558 15.1097C19.5558 17.5772 17.8403 19.5558 15.0848 19.5558ZM53.3337 53.3337H44.4448V37.1577C44.4448 33.2501 42.267 30.5835 38.7701 30.5835C36.1017 30.5835 34.6581 32.3825 33.9577 34.1212C33.7017 34.7435 33.7781 36.4643 33.7781 37.3337V53.3337H24.8892V23.1115H33.7781V27.7621C35.0598 25.7781 37.067 23.1115 42.2012 23.1115C48.5621 23.1115 53.3318 27.1115 53.3318 36.043L53.3337 53.3337Z" fill="#AAAAAA"/>
</g>
<defs>
<clipPath id="clip0_1318_10">
<rect width="64" height="64" fill="white"/>
</clipPath>
</defs>
</svg>
