<svg width="60" height="60" viewBox="0 0 60 60" fill="none" xmlns="http://www.w3.org/2000/svg">
<path d="M30 60C46.5685 60 60 46.5685 60 30C60 13.4315 46.5685 0 30 0C13.4315 0 0 13.4315 0 30C0 46.5685 13.4315 60 30 60Z" fill="#FF4500"/>
<path d="M50.0073 30C49.9179 27.5839 47.8895 25.6972 45.466 25.7792C44.3921 25.8165 43.3705 26.2565 42.595 26.9947C39.1796 24.6681 35.1677 23.393 31.0439 23.3035L32.9902 13.9448L39.4108 15.2945C39.5897 16.9425 41.0663 18.1357 42.7143 17.9567C44.3623 17.7777 45.5554 16.3012 45.3765 14.6532C45.1975 13.0052 43.721 11.812 42.073 11.991C41.1259 12.088 40.2758 12.6398 39.806 13.4601L32.4533 11.991C31.9537 11.8792 31.454 12.1924 31.3422 12.6994C31.3422 12.7069 31.3422 12.7069 31.3422 12.7144L29.1274 23.1245C24.9514 23.1916 20.8873 24.4742 17.4272 26.8158C15.6673 25.1603 12.8933 25.2423 11.2378 27.0097C9.58229 28.7695 9.66432 31.5436 11.4317 33.1991C11.7747 33.5197 12.1699 33.7956 12.6099 33.9895C12.5801 34.4295 12.5801 34.8695 12.6099 35.3094C12.6099 42.0283 20.4399 47.4944 30.0968 47.4944C39.7538 47.4944 47.5838 42.0358 47.5838 35.3094C47.6136 34.8695 47.6136 34.4295 47.5838 33.9895C49.0901 33.2364 50.0372 31.6853 50.0073 30ZM20.0073 33.0052C20.0073 31.3497 21.3571 30 23.0126 30C24.668 30 26.0178 31.3497 26.0178 33.0052C26.0178 34.6607 24.668 36.0104 23.0126 36.0104C21.3496 35.9955 20.0073 34.6607 20.0073 33.0052ZM37.4346 41.2528C35.3019 42.856 32.6919 43.6763 30.0223 43.5645C27.3526 43.6763 24.7426 42.856 22.6099 41.2528C22.3265 40.9097 22.3787 40.3952 22.7217 40.1118C23.02 39.8657 23.4451 39.8657 23.7508 40.1118C25.5554 41.4317 27.7553 42.1029 29.9924 41.9985C32.2296 42.1178 34.4369 41.4765 36.2639 40.1715C36.592 39.8508 37.1289 39.8583 37.4496 40.1864C37.7702 40.5145 37.7628 41.0514 37.4346 41.3721V41.2528ZM36.8977 36.1148C35.2422 36.1148 33.8925 34.7651 33.8925 33.1096C33.8925 31.4541 35.2422 30.1044 36.8977 30.1044C38.5532 30.1044 39.9029 31.4541 39.9029 33.1096C39.9701 34.7651 38.68 36.1595 37.0245 36.2267C36.9723 36.2267 36.9276 36.2267 36.8754 36.2267L36.8977 36.1148Z" fill="white"/>
</svg>
