<svg width="64" height="64" viewBox="0 0 64 64" fill="none" xmlns="http://www.w3.org/2000/svg">
<g clip-path="url(#clip0_1318_21)">
<path d="M51.9031 48.6265C51.5053 48.4118 51.0209 48.4327 50.6431 48.6814C47.7828 50.5615 44.8831 51.5148 42.0237 51.5148C40.4872 51.5148 39.1671 51.1717 37.9829 50.4625C37.1779 49.986 36.4301 49.1527 36.1621 48.4286C35.9019 47.7401 35.9048 45.8865 35.9088 43.3214L35.91 27.68H48.9057C49.5856 27.68 50.1365 27.1289 50.1365 26.4492V15.459C50.1365 14.7793 49.5856 14.2282 48.9057 14.2282H35.91V1.23077C35.91 0.551139 35.3591 0 34.6792 0H25.9245C25.3023 0 24.778 0.464492 24.7026 1.08234C24.3368 4.09255 23.6545 6.592 22.6726 8.5152C21.7151 10.4106 20.4195 12.0601 18.82 13.4198C17.5386 14.5127 15.3448 15.5702 12.2994 16.563C11.7928 16.7281 11.4502 17.2002 11.4502 17.7332V26.4495C11.4502 27.1291 12.0011 27.6802 12.681 27.6802H19.8079V48.0288C19.8079 51.0272 20.1259 53.2835 20.7807 54.9275C21.4477 56.5977 22.632 58.1703 24.3014 59.6027C25.9435 61.0097 27.942 62.1103 30.248 62.8761C32.4836 63.6052 34.264 64.0003 37.2661 64.0003C39.8039 64.0003 42.2229 63.7371 44.457 63.2177C46.6529 62.7052 49.1381 61.7996 51.8436 60.5263C52.2751 60.3232 52.5503 59.8895 52.5503 59.4127V49.71C52.5498 49.2574 52.3016 48.8414 51.9031 48.6265Z" fill="#8C8C8C"/>
</g>
<defs>
<clipPath id="clip0_1318_21">
<rect width="64" height="64" fill="white"/>
</clipPath>
</defs>
</svg>
