<svg width="48" height="48" viewBox="0 0 48 48" fill="none" xmlns="http://www.w3.org/2000/svg">
<path d="M46.1051 11.02C44.5541 11.707 42.8861 12.165 41.1261 12.382C42.9151 11.32 44.2921 9.626 44.9381 7.624C43.2641 8.605 41.4091 9.326 39.4361 9.706C37.8601 8.036 35.6121 7 33.1221 7C28.3391 7 24.4611 10.843 24.4611 15.582C24.4611 16.253 24.5401 16.906 24.6871 17.54C17.4911 17.179 11.1081 13.758 6.83807 8.566C6.08807 9.835 5.66607 11.32 5.66607 12.888C5.66607 15.867 7.19107 18.49 9.51707 20.035C8.09707 19.992 6.76107 19.597 5.59107 18.963C5.59107 18.989 5.59107 19.027 5.59107 19.064C5.59107 23.227 8.57707 26.694 12.5351 27.483C11.8121 27.681 11.0471 27.791 10.2591 27.791C9.70007 27.791 9.15507 27.728 8.62707 27.633C9.72907 31.035 12.9261 33.522 16.7141 33.596C13.7501 35.894 10.0171 37.27 5.95807 37.27C5.25707 37.27 4.57107 37.23 3.89307 37.148C7.73007 39.577 12.2831 41 17.1711 41C33.0981 41 41.8121 27.921 41.8121 16.574C41.8121 16.202 41.8001 15.832 41.7831 15.466C43.4831 14.265 44.9481 12.751 46.1051 11.02Z" fill="url(#paint0_linear_412_131)"/>
<defs>
<linearGradient id="paint0_linear_412_131" x1="10.3411" y1="8.312" x2="40.7981" y2="38.769" gradientUnits="userSpaceOnUse">
<stop stop-color="#2AA4F4"/>
<stop offset="1" stop-color="#007AD9"/>
</linearGradient>
</defs>
</svg>
