<svg width="60" height="43" viewBox="0 0 60 43" fill="none" xmlns="http://www.w3.org/2000/svg">
<path d="M58.7642 6.58709C58.0722 4.01169 56.0459 1.98108 53.4759 1.2877C48.7807 0 29.9999 0 29.9999 0C29.9999 0 11.2191 0 6.52386 1.23817C4.00328 1.93155 1.9275 4.01169 1.23558 6.58709C0 11.2922 0 21.049 0 21.049C0 21.049 0 30.8553 1.23558 35.5108C1.9275 38.0862 3.95385 40.1169 6.52386 40.8102C11.2685 42.0979 29.9999 42.0979 29.9999 42.0979C29.9999 42.0979 48.7807 42.0979 53.4759 40.8598C56.0459 40.1664 58.0722 38.1358 58.7642 35.5604C59.9997 30.8553 59.9997 21.0985 59.9997 21.0985C59.9997 21.0985 60.0492 11.2922 58.7642 6.58709V6.58709Z" fill="#737070"/>
<path d="M24.0198 12.035V30.0629L39.6375 21.0489L24.0198 12.035Z" fill="#aaaaaa"/>
</svg>
