<svg width="90" height="64" viewBox="0 0 90 64" fill="none" xmlns="http://www.w3.org/2000/svg">
<g clip-path="url(#clip0_1318_15)">
<path d="M87.5702 9.80404C86.539 5.97089 83.5194 2.94858 79.6896 1.91658C72.6928 0 44.7057 0 44.7057 0C44.7057 0 16.7187 0 9.72183 1.84286C5.96567 2.87487 2.87235 5.97089 1.84126 9.80404C0 16.807 0 31.3287 0 31.3287C0 31.3287 0 45.9242 1.84126 52.8533C2.87235 56.6864 5.89201 59.7089 9.72183 60.7408C16.7923 62.6573 44.7057 62.6573 44.7057 62.6573C44.7057 62.6573 72.6928 62.6573 79.6896 60.8146C83.5194 59.7825 86.539 56.7603 87.5702 52.9271C89.4113 45.9242 89.4113 31.4024 89.4113 31.4024C89.4113 31.4024 89.4851 16.807 87.5702 9.80404Z" fill="#F70101"/>
<path d="M35.7939 17.9121V44.7443L59.0674 31.3281L35.7939 17.9121Z" fill="#AAAAAA"/>
</g>
<defs>
<clipPath id="clip0_1318_15">
<rect width="89.4118" height="64" fill="white"/>
</clipPath>
</defs>
</svg>
